<?xml version="1.0" encoding="utf-8"?>
<svg xmlns="http://www.w3.org/2000/svg" xmlns:xlink="http://www.w3.org/1999/xlink"
     width="319" height="349" viewBox="42 536 319 349">
  <g>
    <path xmlns="http://www.w3.org/2000/svg" fill="#E8E6D2" d="M321.8,663.2c1.4-12.7,1.9-26.5,0.3-38c-1.1-7.8-7.7-13.5-15.6-13.8c-6.7-0.2-16.7,0-27.8,1.6    c-18.5-17.9-40.9-36.5-67-55.7c0,0,0,0,0,0l-7.9-5.7c0,0-0.1-0.1-0.1-0.1c-0.1,0-0.1-0.1-0.2-0.1c-0.1,0-0.1-0.1-0.2-0.1    c0,0-0.1,0-0.1,0c0,0,0,0,0,0c0,0,0,0-0.1,0c-0.1,0-0.1,0-0.2,0c-0.1,0-0.1,0-0.2,0c-0.1,0-0.1,0-0.2,0c0,0-0.1,0-0.1,0    c-0.1,0-0.1,0-0.2,0c-0.1,0-0.1,0-0.2,0c-0.1,0-0.1,0-0.2,0c0,0,0,0-0.1,0c0,0,0,0,0,0c0,0-0.1,0-0.1,0c-0.1,0-0.1,0-0.2,0.1    c-0.1,0-0.1,0.1-0.2,0.1c0,0-0.1,0-0.1,0.1l-8,5.7c-26.1,19.2-48.5,37.8-67,55.7c-11.2-1.6-21.1-1.8-27.8-1.6    c-7.9,0.2-14.4,6-15.6,13.8c-1.7,11.5-1.1,25.3,0.3,38c-18.2,27.1-26.2,52.4-23.9,75.7c0.1,1.4,0.3,2.8,0.5,4.1    c0.1,0.5,0.2,0.9,0.2,1.4c0.2,0.9,0.3,1.8,0.5,2.7c0.1,0.5,0.2,1,0.4,1.5c0.2,0.8,0.4,1.6,0.6,2.3c0.1,0.5,0.3,1.1,0.5,1.6    c0.2,0.7,0.4,1.5,0.6,2.2c0.2,0.5,0.4,1,0.5,1.6c0.2,0.7,0.5,1.4,0.7,2.1c0.2,0.5,0.4,1,0.6,1.5c0.3,0.7,0.5,1.4,0.8,2    c0.2,0.5,0.5,1,0.7,1.5c0.3,0.6,0.6,1.3,0.9,1.9c0.2,0.5,0.5,1,0.7,1.4c0.3,0.6,0.7,1.3,1,1.9c0.3,0.5,0.5,0.9,0.8,1.4    c0.4,0.6,0.7,1.2,1.1,1.8c0.3,0.4,0.6,0.9,0.8,1.3c0.4,0.6,0.8,1.2,1.1,1.8c0.3,0.4,0.6,0.8,0.9,1.3c0.4,0.6,0.8,1.2,1.2,1.7    c0.3,0.4,0.6,0.8,0.9,1.2c0.4,0.6,0.8,1.1,1.3,1.7c0.3,0.4,0.6,0.8,0.9,1.1c0.4,0.5,0.9,1.1,1.3,1.6c0.3,0.4,0.6,0.7,1,1.1    c0.5,0.5,0.9,1.1,1.4,1.6c0.3,0.3,0.6,0.7,1,1c0.5,0.5,1,1,1.4,1.5c0.3,0.3,0.7,0.6,1,1c0.5,0.5,1,1,1.5,1.5    c0.3,0.3,0.7,0.6,1,0.9c0.5,0.5,1,0.9,1.5,1.4c0.3,0.3,0.7,0.6,1,0.9c0.5,0.5,1,0.9,1.5,1.4c0.3,0.3,0.6,0.5,1,0.8    c0.5,0.4,1.1,0.9,1.6,1.3c0.3,0.3,0.6,0.5,1,0.8c0.5,0.4,1.1,0.8,1.6,1.3c0.3,0.2,0.6,0.5,0.9,0.7c0.5,0.4,1.1,0.8,1.6,1.2    c0.3,0.2,0.6,0.4,0.9,0.7c0.5,0.4,1.1,0.8,1.6,1.2c0.3,0.2,0.6,0.4,0.9,0.6c0.5,0.4,1.1,0.7,1.6,1.1c0.3,0.2,0.6,0.4,0.9,0.6    c0.5,0.4,1.1,0.7,1.6,1c0.3,0.2,0.6,0.3,0.8,0.5c0.5,0.3,1.1,0.7,1.6,1c0.3,0.2,0.5,0.3,0.8,0.5c0.5,0.3,1,0.6,1.6,0.9    c0.3,0.1,0.5,0.3,0.8,0.4c0.5,0.3,1,0.6,1.5,0.9c0.2,0.1,0.5,0.3,0.7,0.4c0.5,0.3,1,0.6,1.5,0.8c0.2,0.1,0.4,0.2,0.6,0.3    c0.5,0.3,1,0.5,1.5,0.8c0.2,0.1,0.4,0.2,0.6,0.3c0.5,0.2,1,0.5,1.4,0.7c0.2,0.1,0.4,0.2,0.5,0.3c0.5,0.2,0.9,0.5,1.4,0.7    c0.1,0,0.1,0.1,0.2,0.1c0.1,3.4,0.2,7.2,0.6,11.2c0.3,3.6,0.8,7.1,1.4,10.2c3.7,20.2,12.6,31.2,25.5,32.1    c0.5,0.1,11.4,1.3,17.6-15.5c4.8,0.8,17.7,2.7,35.4,2.4c17.8,0.3,30.7-1.5,35.5-2.4c5.4,14.4,14.2,15.5,16.8,15.5    c0.4,0,0.7,0,0.7,0c13.1-0.8,21.9-11.9,25.6-32.1c0.6-3.1,1-6.5,1.4-10.2c0.4-4,0.5-7.8,0.6-11.2c0.1,0,0.2-0.1,0.2-0.1    c0.4-0.2,0.8-0.4,1.1-0.6c0.2-0.1,0.5-0.2,0.7-0.4c0.4-0.2,0.8-0.4,1.2-0.6c0.3-0.1,0.5-0.3,0.8-0.4c0.4-0.2,0.9-0.5,1.3-0.7    c0.3-0.1,0.5-0.3,0.8-0.4c0.4-0.2,0.9-0.5,1.3-0.7c0.3-0.2,0.6-0.3,0.9-0.5c0.5-0.3,0.9-0.5,1.4-0.8c0.3-0.2,0.6-0.3,0.9-0.5    c0.5-0.3,0.9-0.6,1.4-0.8c0.3-0.2,0.6-0.4,0.9-0.6c0.5-0.3,1-0.6,1.5-0.9c0.3-0.2,0.6-0.4,1-0.6c0.5-0.3,1-0.6,1.5-1    c0.3-0.2,0.7-0.4,1-0.6c0.5-0.3,1-0.7,1.5-1c0.3-0.2,0.7-0.5,1-0.7c0.5-0.3,1-0.7,1.5-1.1c0.3-0.2,0.7-0.5,1-0.7    c0.5-0.4,1-0.7,1.5-1.1c0.3-0.3,0.7-0.5,1-0.8c0.5-0.4,1-0.8,1.5-1.2c0.4-0.3,0.7-0.5,1.1-0.8c0.5-0.4,1-0.8,1.5-1.2    c0.4-0.3,0.7-0.6,1.1-0.9c0.5-0.4,1-0.9,1.5-1.3c0.4-0.3,0.7-0.6,1.1-0.9c0.5-0.4,1-0.9,1.4-1.3c0.4-0.3,0.7-0.7,1.1-1    c0.5-0.5,1-0.9,1.4-1.4c0.3-0.3,0.7-0.7,1-1c0.5-0.5,0.9-1,1.4-1.5c0.3-0.4,0.7-0.7,1-1.1c0.5-0.5,0.9-1,1.3-1.5    c0.3-0.4,0.7-0.8,1-1.1c0.4-0.5,0.9-1,1.3-1.6c0.3-0.4,0.7-0.8,1-1.2c0.4-0.5,0.8-1.1,1.3-1.6c0.3-0.4,0.6-0.8,0.9-1.2    c0.4-0.6,0.8-1.1,1.2-1.7c0.3-0.4,0.6-0.9,0.9-1.3c0.4-0.6,0.8-1.2,1.1-1.7c0.3-0.4,0.6-0.9,0.9-1.3c0.4-0.6,0.7-1.2,1.1-1.8    c0.3-0.5,0.5-0.9,0.8-1.4c0.3-0.6,0.7-1.2,1-1.9c0.3-0.5,0.5-1,0.8-1.4c0.3-0.6,0.6-1.3,0.9-1.9c0.2-0.5,0.5-1,0.7-1.5    c0.3-0.7,0.6-1.4,0.8-2c0.2-0.5,0.4-1,0.6-1.5c0.3-0.7,0.5-1.4,0.8-2.1c0.2-0.5,0.4-1,0.5-1.5c0.2-0.7,0.4-1.5,0.7-2.2    c0.2-0.5,0.3-1,0.5-1.6c0.2-0.8,0.4-1.6,0.6-2.4c0.1-0.5,0.2-1,0.4-1.5c0.2-0.9,0.3-1.8,0.5-2.7c0.1-0.4,0.2-0.9,0.2-1.3    c0.2-1.4,0.4-2.7,0.5-4.1c0.2-2.4,0.4-4.8,0.4-7.3c0-1.6,0-3.3-0.1-4.9C345,706.8,336.9,685.6,321.8,663.2z" />
		
    <g xmlns="http://www.w3.org/2000/svg">
			<g>
				<path fill="#71B07B" d="M204.6,553.5l-7.9-5.7l-7.9,5.7c-224.6,165-105.6,238.4-70,255.1v0c5.4,2.5,8.9,3.8,8.9,3.8l69,16.6      l69-16.6c0,0,3.5-1.2,8.9-3.8v0C310.3,791.9,429.3,718.4,204.6,553.5z" />
				<path fill="#3C2415" d="M196.7,831.2c-0.2,0-0.4,0-0.5-0.1l-69-16.6c-0.4-0.1-3.9-1.4-9.4-3.9c-0.1,0-0.2-0.1-0.3-0.2      c-18-8.5-59.6-32.7-64.1-77.3c-5.1-51.5,40-112.6,134-181.6l8-5.7c0.8-0.6,1.9-0.6,2.7,0l7.9,5.7c0,0,0,0,0,0      c94,69,139.1,130.1,134,181.6c-4.4,44.6-46,68.8-64.1,77.3c-0.1,0.1-0.2,0.1-0.3,0.2c-5.5,2.5-9,3.8-9.2,3.8l-69.2,16.7      C197,831.2,196.9,831.2,196.7,831.2z M120,806.6c5.1,2.3,8.4,3.5,8.4,3.5l68.3,16.4l68.5-16.5l0,0c0,0,3.3-1.2,8.2-3.5      c0.1-0.1,0.2-0.1,0.3-0.2c17.2-8,57.5-31.2,61.7-73.7c4.9-49.7-39.5-109.4-132.1-177.4l-6.6-4.7l-6.6,4.7      C97.5,623.3,53.1,683,58,732.7c4.2,42.5,44.6,65.7,61.7,73.7C119.8,806.5,119.9,806.5,120,806.6z" />
			</g>
			<g>
				<path fill="#71B07B" d="M118.7,808.5c-35.6-16.6-154.6-90.1,70-255.1l7.9-5.7C196.7,547.8,72.7,685.4,118.7,808.5z" />
				<path fill="#3C2415" d="M118.7,810.8c-0.3,0-0.7-0.1-1-0.2c-17.9-8.3-59.9-32.6-64.4-77.4c-5.1-51.5,40-112.6,134-181.6l8-5.7      c1-0.7,2.3-0.5,3.1,0.3c0.8,0.9,0.8,2.2,0,3.1c-1.2,1.4-122.5,138-77.5,258.3c0.3,0.9,0.1,1.9-0.6,2.5      C119.8,810.6,119.3,810.8,118.7,810.8z M183.6,560.2c-88.2,66-130.4,124-125.6,172.6c3.8,38.7,37.7,61.4,56.7,71.2      C81.7,705.1,154.5,597.7,183.6,560.2z" />
			</g>
			<g>
				<path fill="#71B07B" d="M274.7,808.5c35.6-16.6,154.6-90.1-70-255.1l-7.9-5.7C196.7,547.8,320.7,685.4,274.7,808.5z" />
				<path fill="#3C2415" d="M274.7,810.8c-0.6,0-1.1-0.2-1.6-0.6c-0.7-0.6-0.9-1.6-0.6-2.5c45-120.4-76.3-257-77.5-258.3      c-0.8-0.9-0.8-2.2,0-3.1c0.8-0.9,2.1-1,3.1-0.3l7.9,5.7c94,69,139.1,130.1,134,181.6c-4.4,44.9-46.5,69.1-64.4,77.4      C275.3,810.8,275,810.8,274.7,810.8z M209.8,560.2c29.1,37.6,101.9,145,69,243.8c19-9.8,52.8-32.5,56.7-71.2      C340.2,684.2,297.9,626.1,209.8,560.2z" />
			</g>
			<g>
				<path fill="#C0D9AC" d="M274.6,796.8c-32.5,13.7-77.9,10.7-77.9,10.7s-45.5,3-77.9-10.7c0,0-0.9,11.1,0.3,24.1      c0.3,3.2,0.7,6.6,1.4,10c2.7,14.9,9.2,29.3,23.5,30.2c0,0,10.2,1.3,15.8-15.8c0,0,14.8,3.1,37,2.7c22.2,0.4,37-2.7,37-2.7      c5.6,17.1,15.8,15.8,15.8,15.8c14.4-0.9,20.8-15.3,23.5-30.2c0.6-3.4,1-6.7,1.4-10C275.5,807.9,274.6,796.8,274.6,796.8z" />
				<path fill="#3C2415" d="M248.9,863.4c-2.6,0-11.4-1.1-16.8-15.5c-4.8,0.8-17.7,2.7-35.5,2.4c-17.7,0.3-30.6-1.5-35.4-2.4      c-6.2,16.7-17.2,15.5-17.6,15.5c-12.9-0.8-21.8-11.9-25.5-32.1c-0.6-3.1-1-6.5-1.4-10.2c-1.2-13-0.3-24-0.3-24.5      c0.1-0.7,0.5-1.4,1.1-1.8c0.6-0.4,1.4-0.4,2.1-0.2c31.6,13.3,76.4,10.5,76.9,10.5c0.8,0,45.6,2.8,77.2-10.5      c0.7-0.3,1.5-0.2,2.1,0.2c0.6,0.4,1,1,1.1,1.8c0,0.5,0.9,11.4-0.3,24.5c-0.3,3.6-0.8,7.1-1.4,10.2      c-3.7,20.2-12.6,31.2-25.6,32.1C249.6,863.3,249.3,863.4,248.9,863.4z M233.7,842.9c1,0,1.9,0.6,2.2,1.6      c4.8,14.9,13,14.3,13.3,14.2c11-0.7,18.2-10.2,21.5-28.3c0.5-3,1-6.3,1.3-9.8c0.8-8.6,0.6-16.4,0.5-20.5      c-32.3,12.4-74.1,9.8-76,9.7c-1.5,0.1-43.4,2.7-75.7-9.7c-0.2,4.2-0.3,12,0.5,20.5c0.3,3.5,0.8,6.8,1.3,9.8      c3.3,18.1,10.5,27.6,21.4,28.3c0.5,0,8.6,0.7,13.5-14.2c0.4-1.1,1.5-1.8,2.7-1.5c0.1,0,14.9,3,36.5,2.6      c21.7,0.4,36.4-2.6,36.6-2.6C233.4,842.9,233.5,842.9,233.7,842.9z" />
			</g>
			<g>
				<path fill="#C0D9AC" d="M316.1,701.1c0,0-27.7-90.6-119.4-86.5c-91.7-4.1-119.4,86.5-119.4,86.5      C37.2,817.5,196.7,807.5,196.7,807.5S356.2,817.5,316.1,701.1z" />
				<path fill="#3C2415" d="M186.6,810c-23.2,0-80.7-3.5-106.1-36.8c-14-18.3-15.8-42.8-5.5-72.8c0.3-0.8,29.3-92.2,121.7-88.1      c91.4-4,120.7,85.6,121.5,88.1c10.3,30,8.5,54.5-5.5,72.8c-13.1,17.2-37.4,29-70.3,34c-24.6,3.8-45.8,2.5-46,2.5      C195.9,809.8,192.3,810,186.6,810z M196.5,805.1c1.1,0,82.6,4.7,112.6-34.8c13-17,14.6-40.1,4.8-68.5c0,0,0,0,0-0.1      c-0.3-0.9-28.2-88.8-117.1-84.9c-89-4-117,84-117.3,84.9c-9.8,28.5-8.2,51.5,4.8,68.6C114.3,809.8,195.7,805.2,196.5,805.1z" />
			</g>
			<g>
				<path fill="#C0D9AC" d="M155.1,620c-23-11.2-48.5-12.4-62.5-12c-6.7,0.2-12.4,5.1-13.3,11.8c-3,21,1.5,49.6,4.6,65.6      C93.6,665.6,115.2,632.9,155.1,620z" />
				<path fill="#3C2415" d="M83.9,687.7c-0.1,0-0.2,0-0.3,0c-1-0.1-1.8-0.9-2-1.8c-3.1-15.6-7.7-44.9-4.6-66.4      c1.1-7.8,7.7-13.5,15.6-13.8c13.5-0.4,39.8,0.7,63.6,12.2c0.8,0.4,1.4,1.3,1.3,2.2c-0.1,0.9-0.7,1.7-1.6,2      c-39.5,12.8-60.7,45.7-69.9,64.2C85.6,687.2,84.7,687.7,83.9,687.7z M97,610.2c-1.5,0-3,0-4.3,0.1c-5.6,0.2-10.3,4.3-11.1,9.8      c-2.6,18.1,0.5,42.3,3.4,58.3c10.3-18.6,30.2-45.7,64-58.6C129.8,611.8,109.7,610.2,97,610.2z" />
			</g>
			<circle fill="#3C2415" cx="122.1" cy="722.8" r="11.7" />
			<ellipse fill="#EF4136" cx="97" cy="737.2" rx="11.3" ry="5.2" />
			<g>
				<ellipse fill="#92CD8C" cx="153.4" cy="677.7" rx="9.1" ry="5.1" />
				<path fill="#3C2415" d="M153.4,684.4c-6,0-10.7-2.9-10.7-6.6c0-3.7,4.7-6.6,10.7-6.6c6,0,10.7,2.9,10.7,6.6      C164.1,681.5,159.4,684.4,153.4,684.4z M153.4,674.2c-4.4,0-7.6,1.9-7.6,3.6c0,1.7,3.3,3.6,7.6,3.6s7.6-1.9,7.6-3.6      C161.1,676.1,157.8,674.2,153.4,674.2z" />
			</g>
			<g>
				<path fill="#92CD8C" d="M148.3,822.5l-1.3,9.7c-0.8,6.1-7.8,9.4-12.9,5.9c-0.1-0.1-0.2-0.1-0.2-0.2l-13.5-7.1      c-0.6-3.4-1-6.7-1.4-10c2.6-2.9,7.2-7.1,12.8-7.2C131.8,813.6,149.4,812.2,148.3,822.5z" />
				<path fill="#3C2415" d="M138.7,841c-1.9,0-3.8-0.6-5.4-1.7l-13.6-7.1c-0.4-0.2-0.7-0.6-0.8-1.1c-0.6-3.1-1-6.5-1.4-10.1      c0-0.4,0.1-0.8,0.4-1.2c2.5-2.8,7.6-7.6,13.9-7.7c0.4,0,11.2-0.8,15.9,4c1.7,1.7,2.4,4,2.1,6.6c0,0,0,0,0,0l-1.3,9.7      c-0.5,3.5-2.6,6.4-5.8,7.8C141.4,840.7,140,841,138.7,841z M121.8,829.8l12.9,6.7c0.3,0.2,0.5,0.3,0.6,0.5      c1.7,1.1,4,1.3,6.2,0.4c2.2-1,3.7-3,4-5.4l1.3-9.7c0.2-1.7-0.2-3-1.3-4.1c-3.1-3.1-10.8-3.3-13.5-3.1c-4.9,0.1-9.1,3.7-11.3,6.2      C120.9,824.4,121.3,827.2,121.8,829.8z M148.3,822.5L148.3,822.5L148.3,822.5z" />
			</g>
			<g>
				<path fill="#C0D9AC" d="M238.3,620c23-11.2,48.5-12.4,62.5-12c6.7,0.2,12.4,5.1,13.3,11.8c3,21-1.5,49.6-4.6,65.6      C299.7,665.6,278.1,632.9,238.3,620z" />
				<path fill="#3C2415" d="M309.5,687.7c-0.9,0-1.7-0.5-2.1-1.3c-9.1-18.5-30.4-51.4-69.9-64.2c-0.9-0.3-1.5-1.1-1.6-2      c-0.1-0.9,0.4-1.8,1.3-2.2c23.7-11.5,50-12.6,63.6-12.2c7.9,0.2,14.4,6,15.6,13.8c3.1,21.5-1.6,50.8-4.6,66.4      c-0.2,1-1,1.7-2,1.8C309.7,687.6,309.6,687.7,309.5,687.7z M244.5,619.7c33.8,13,53.7,40,64,58.6c2.8-16,6-40.1,3.4-58.3      c-0.8-5.5-5.5-9.6-11.1-9.8C288.6,609.9,265.9,610.8,244.5,619.7z" />
			</g>
			<circle fill="#3C2415" cx="271.3" cy="722.8" r="11.7" />
			<ellipse fill="#EF4136" cx="296.4" cy="737.2" rx="11.3" ry="5.2" />
			<g>
				<path fill="#92CD8C" d="M213.7,639c-10.3-6.8-23.8-6.8-34.1,0c-7.4,4.9-14.2,12.2-13.4,22.1c0,0,0.8,14.8,24.7,19.8      c3.8,0.8,7.7,0.8,11.5,0c23.8-5,24.7-19.8,24.7-19.8C227.9,651.2,221.1,643.9,213.7,639z" />
				<path fill="#3C2415" d="M196.7,683.1c-2,0-4.1-0.2-6.1-0.6c-24.7-5.2-25.9-20.6-25.9-21.3c-0.7-8.7,4.1-16.8,14.1-23.4      c10.9-7.2,24.9-7.2,35.8,0l0,0c9.9,6.6,14.8,14.7,14.1,23.5c0,0.6-1.2,16-25.9,21.2C200.8,682.8,198.7,683.1,196.7,683.1z       M196.7,635.4c-5.6,0-11.3,1.6-16.2,4.9c-9.1,6-13.4,13-12.7,20.7c0,0.6,1.2,13.8,23.5,18.5c3.6,0.7,7.3,0.7,10.9,0      c22.3-4.7,23.4-17.9,23.5-18.4c0.6-7.7-3.6-14.7-12.7-20.7l0,0C207.9,637,202.3,635.4,196.7,635.4z" />
			</g>
			<g>
				<ellipse fill="#92CD8C" cx="239.9" cy="677.7" rx="9.1" ry="5.1" />
				<path fill="#3C2415" d="M239.9,684.4c-6,0-10.7-2.9-10.7-6.6c0-3.7,4.7-6.6,10.7-6.6c6,0,10.7,2.9,10.7,6.6      C250.6,681.5,245.9,684.4,239.9,684.4z M239.9,674.2c-4.4,0-7.6,1.9-7.6,3.6c0,1.7,3.3,3.6,7.6,3.6c4.4,0,7.6-1.9,7.6-3.6      C247.5,676.1,244.3,674.2,239.9,674.2z" />
			</g>
			<path fill="#3C2415" d="M196.7,735.8c-8.5,9.9-31.6,5.4-31.6,5.4c8.1,15.9,23.1,15.3,31.6,15.3c8.5,0,23.5,0.6,31.6-15.3     C228.3,741.2,205.2,745.7,196.7,735.8z" />
			<g>
				<path fill="#92CD8C" d="M245.1,822.5l1.3,9.7c0.8,6.1,7.8,9.4,12.9,5.9c0.1-0.1,0.2-0.1,0.2-0.2l13.5-7.1c0.6-3.4,1-6.7,1.4-10      c-2.6-2.9-7.2-7.1-12.8-7.2C261.5,813.6,243.9,812.2,245.1,822.5z" />
				<path fill="#3C2415" d="M254.6,841c-1.3,0-2.7-0.3-4-0.9c-3.2-1.4-5.4-4.4-5.8-7.8l-1.3-9.7c0,0,0,0,0,0      c-0.3-2.6,0.4-4.8,2.1-6.6c4.7-4.8,15.5-4,16-4c6.2,0.2,11.4,4.9,13.9,7.7c0.3,0.3,0.4,0.7,0.4,1.2c-0.3,3.6-0.8,7-1.4,10.1      c-0.1,0.5-0.4,0.9-0.8,1.1l-13.5,7.1C258.5,840.4,256.6,841,254.6,841z M246.6,822.3l1.3,9.7c0.3,2.4,1.8,4.4,4,5.4      c2.2,1,4.5,0.8,6.4-0.6c-0.1,0.1,0.1-0.1,0.3-0.2l13-6.8c0.5-2.6,0.8-5.4,1.1-8.4c-2.3-2.5-6.4-6.1-11.3-6.2      c-2.8-0.2-10.6-0.1-13.6,3.1C246.8,819.3,246.4,820.6,246.6,822.3z" />
			</g>
		</g>
		
  </g>
</svg>
