<?xml version="1.0" encoding="utf-8"?>
<svg xmlns="http://www.w3.org/2000/svg" xmlns:xlink="http://www.w3.org/1999/xlink"
     width="309" height="343" viewBox="728 142 309 343">
  <g>
    <path xmlns="http://www.w3.org/2000/svg" fill="#E8E6D2" d="M766.4,328.8c9.5,15,27.4,18.8,34.4,19.7c-0.3,0.9-0.5,1.8-0.7,2.7c-37.2,21.4-35,27.3-34.1,29.6    c0.8,2,2.7,3.7,9.2,3.7c4.3,0,10.5-0.7,19.8-2.6c-1,13.5-0.1,22.4,0,23c1.2,14.9,5.9,27.3,13.9,36.9c1.2,1.5,2.5,2.8,3.8,4.1    c-20.9,14.8-18.9,18.9-18,20.7c0.7,1.5,2.1,2.8,6.4,2.8c5.5,0,16-2.1,36.2-8.8c18.1,6.2,35.6,4.9,38,4.7c0.2,0,0.5,0,0.9,0.1    c1.2,0.1,3.2,0.2,5.9,0.2c0,0,0,0,0,0s0,0,0,0c7.2,0,19.1-0.8,31.2-4.9c20.3,6.6,30.7,8.8,36.2,8.8c4.3,0,5.7-1.3,6.4-2.8    c0.9-1.8,2.9-5.8-18-20.7c1.3-1.3,2.6-2.7,3.8-4.1c3.6-4.3,6.5-9.1,8.7-14.4c36.2-15.9,50.5-54.1,52.5-59.8    c19.2-15.3,8.1-31.2,8-31.2c-5.4-8.6-4.1-20.1-4.1-20.2c0.1-0.9-0.3-1.7-1-2.2c-0.7-0.5-1.7-0.5-2.4,0    c-13.4,8.1-21.1,17.5-23,27.9c-1.8,10.3,2.6,18.4,4.7,21.4c-1.6,2.9-3.4,5.5-5.4,7.8c-4.7-4.4-13.4-10.7-29.3-19.8    c-0.2-0.9-0.5-1.8-0.7-2.7c7-0.9,25-4.7,34.4-19.7c8.4-13.3,7.8-31.9-1.7-55.1c4-7.5,25.3-52.7-20.2-91    c-1.6-1.4-30.4-26.3-86.9-26.3c-0.1,0-0.1,0-0.2,0c-56.9,0-85.7,25.3-86.8,26.3c-45.6,38.3-24.2,83.6-20.2,91    C758.6,296.9,758,315.4,766.4,328.8z M956,387.6c-0.1-1.8-0.2-3.7-0.3-5.7c3.3,0.7,6.2,1.2,8.8,1.6    C961.4,385.1,958.6,386.5,956,387.6z" />
		
    <g xmlns="http://www.w3.org/2000/svg">
			<g>
				<path fill="#F9A86D" d="M955,178.7c0,0-28.7-25.8-85.4-25.8c-56.7,0-85.4,25.8-85.4,25.8c-48.6,40.9-19.2,89.1-19.2,89.1      c-29.5,70,33.1,72.9,33.1,72.9c-9.6,31.7-6.6,58.2-6.6,58.2c1.2,15.6,6.3,27.1,13.4,35.6c22.4,26.9,64.7,22.6,64.7,22.6      s42.3,4.3,64.7-22.6c7.1-8.4,12.1-19.9,13.4-35.6c0,0,2.9-26.5-6.6-58.2c0,0,62.6-2.9,33.1-72.9      C974.2,267.8,1003.6,219.6,955,178.7z" />
				<path fill="#3C2415" d="M876.4,459.7c-3.6,0-6-0.2-6.8-0.3c-3.8,0.4-44.2,3.3-66.5-23.5c-8-9.6-12.7-22-13.9-36.9      c-0.1-1-2.7-25.8,5.9-56.3c-7-0.9-25-4.7-34.4-19.7c-8.4-13.3-7.8-31.9,1.7-55.1c-4-7.5-25.3-52.7,20.2-91      c1.1-1,30-26.3,86.8-26.3c0.1,0,0.1,0,0.2,0c56.5,0,85.3,24.9,86.9,26.3c45.5,38.3,24.2,83.6,20.2,91      c9.6,23.2,10.1,41.8,1.7,55.1c-9.5,15-27.4,18.8-34.4,19.7c8.7,30.5,6,55.3,5.9,56.4c-1.2,14.8-5.9,27.2-13.9,36.8      C918.5,457,889.7,459.7,876.4,459.7z M869.6,454.8c0.1,0,0.2,0,0.2,0c0.4,0,41.3,3.8,62.7-21.8c7.4-8.9,11.7-20.4,12.8-34.3      c0-0.3,2.8-26.5-6.5-57.3c-0.2-0.7-0.1-1.4,0.3-2c0.4-0.6,1.1-0.9,1.8-1c0.2,0,23.3-1.3,33.7-17.9c7.7-12.2,6.8-29.6-2.5-51.9      c-0.3-0.7-0.2-1.5,0.2-2.1c1.2-1.9,27.8-47.1-18.7-86.2c0,0,0,0-0.1,0c-0.3-0.3-28.8-25.2-83.8-25.2c-0.1,0-0.1,0-0.2,0      c-55.1,0-83.5,24.9-83.8,25.2c-46.5,39.1-19.9,84.3-18.7,86.2c0.4,0.6,0.4,1.4,0.2,2.1c-9.4,22.2-10.2,39.7-2.5,51.9      c10.4,16.6,33.4,17.8,33.6,17.8c0.7,0,1.4,0.4,1.8,1c0.4,0.6,0.5,1.3,0.3,2c-9.3,30.9-6.6,57-6.5,57.3      c1.1,14,5.4,25.5,12.8,34.3c21.4,25.6,62.3,21.9,62.7,21.8C869.4,454.8,869.5,454.8,869.6,454.8z" />
			</g>
			<g>
				<path fill="#F9A86D" d="M810.6,440.3c-12.7,8.8-46.6,34.2,21.1,12C824.4,449.7,817,445.9,810.6,440.3z" />
				<path fill="#3C2415" d="M795.4,463.5c-4.3,0-5.7-1.3-6.4-2.8c-0.9-1.8-3.1-6.1,20.4-22.3c0.9-0.6,2-0.5,2.8,0.2      c5.6,4.9,12.4,8.8,20.3,11.5c0.9,0.3,1.6,1.2,1.5,2.2c0,1-0.6,1.9-1.6,2.2C811.6,461.3,801,463.5,795.4,463.5z M793.2,458.6      c1.3,0.5,7,1.2,31.6-6.6c-5.3-2.4-10.1-5.4-14.4-8.8C797.8,452.2,793.7,457,793.2,458.6z" />
			</g>
			<g>
				<path fill="#F9A86D" d="M796.4,346.9c-14,8-66.5,39.4-4.6,26.3C792.5,365.5,793.9,356.6,796.4,346.9z" />
				<path fill="#3C2415" d="M769.5,378.7c-6.5,0-8.4-1.7-9.2-3.7c-0.9-2.3-3.1-8.3,35-30c0.8-0.5,1.8-0.4,2.5,0.2      c0.7,0.6,1.1,1.5,0.8,2.4c-2.2,8.4-3.7,17.1-4.5,25.9c-0.1,1-0.8,1.8-1.8,2C781.4,377.8,774.2,378.7,769.5,378.7z M792.9,351.7      c-20.8,12.3-28.4,19.7-28.3,21.7c0.2,0.1,3,2.4,25.1-2.1C790.4,364.7,791.5,358.1,792.9,351.7z" />
			</g>
			<path fill="#3C2415" d="M849.9,280.4c-0.5,0-0.9,0-1.4,0c-11.7-0.6-19.4-9.2-19.7-9.6c-0.8-1-0.7-2.4,0.2-3.3     c1-0.8,2.4-0.8,3.3,0.2c0.1,0.1,6.8,7.5,16.5,8c6.5,0.4,12.9-2.4,19.2-8.2c0.9-0.9,2.4-0.8,3.3,0.1s0.8,2.4-0.1,3.3     C864.3,277.2,857.2,280.4,849.9,280.4z" />
			<circle fill="#3C2415" cx="797.7" cy="257.5" r="10.1" />
			<ellipse fill="#EF4136" cx="783.9" cy="279" rx="13.7" ry="5.3" />
			<g>
				<path fill="#F9A86D" d="M928.5,440.3c12.7,8.8,46.6,34.2-21.1,12C914.8,449.7,922.1,445.9,928.5,440.3z" />
				<path fill="#3C2415" d="M943.8,463.5c-5.6,0-16.2-2.2-37.1-9c-0.9-0.3-1.6-1.2-1.6-2.2c0-1,0.6-1.9,1.5-2.2      c7.9-2.7,14.7-6.6,20.3-11.5c0.8-0.7,2-0.8,2.8-0.2c23.4,16.2,21.3,20.5,20.4,22.3C949.5,462.2,948.2,463.5,943.8,463.5z       M914.3,452.1c24.6,7.7,30.4,7.1,31.6,6.6c-0.5-1.6-4.6-6.5-17.3-15.4C924.5,446.7,919.6,449.7,914.3,452.1z" />
			</g>
			<g>
				<path fill="#FFE19B" d="M869.6,356.9c-83.9-3.6-64.7,77.5-64.7,77.5c22.4,26.9,64.7,22.6,64.7,22.6s42.3,4.3,64.7-22.6      C934.3,434.5,953.5,353.3,869.6,356.9z" />
				<path fill="#3C2415" d="M876.4,459.7c-3.6,0-6-0.2-6.8-0.3c-3.8,0.4-44.2,3.3-66.5-23.5c-0.2-0.3-0.4-0.6-0.5-0.9      c-0.4-1.5-8.5-37.3,11-60.9c11.6-14,30.4-20.6,56-19.5c25.5-1.1,44.4,5.5,56,19.5c19.5,23.6,11.3,59.4,11,60.9      c-0.1,0.3-0.2,0.7-0.5,0.9C918.5,457,889.7,459.7,876.4,459.7z M807,433.4c21.5,25.2,61.9,21.4,62.3,21.4c0.2,0,0.3,0,0.5,0      c0.4,0,40.9,3.8,62.3-21.4c0.9-4.4,6.7-36-10.2-56.4c-10.6-12.9-28.2-18.9-52.3-17.8c-0.1,0-0.1,0-0.2,0      c-24.1-1-41.7,5-52.3,17.8C800.4,397.4,806.1,429,807,433.4z" />
			</g>
			<path fill="#3C2415" d="M889.3,280.4c-7.3,0-14.5-3.2-21.3-9.4c-0.9-0.9-1-2.3-0.1-3.3c0.9-0.9,2.3-1,3.3-0.1     c6.3,5.8,12.8,8.6,19.3,8.2c9.8-0.5,16.4-7.9,16.5-8c0.8-1,2.3-1.1,3.3-0.2c1,0.8,1.1,2.3,0.2,3.3c-0.3,0.4-8,9-19.7,9.6     C890.2,280.4,889.7,280.4,889.3,280.4z" />
			<g>
				<path fill="#F47C57" d="M899.8,276.9c-18.9,5.3-30.2-7.6-30.2-7.6s-11.3,12.9-30.2,7.6c0,0-1.9,11.6,0.9,22.2      c2.8,10.5,10.4,20,29.3,16.4c18.9,3.7,26.5-5.8,29.3-16.4C901.7,288.5,899.8,276.9,899.8,276.9z" />
				<path fill="#3C2415" d="M877.4,318.6c-2.4,0-5-0.2-7.8-0.8c-21,3.9-28.7-7.7-31.5-18.1c-3-11-1-22.7-1-23.2      c0.1-0.6,0.5-1.2,1-1.6c0.6-0.3,1.2-0.4,1.9-0.3c17.3,4.8,27.7-6.8,27.8-6.9c0.9-1,2.6-1,3.5,0c0.4,0.5,10.6,11.7,27.8,6.9      c0.6-0.2,1.3-0.1,1.9,0.3c0.6,0.4,0.9,0.9,1,1.6c0.1,0.5,2,12.2-1,23.2C898.7,308.7,892.6,318.6,877.4,318.6z M869.6,313.1      c0.1,0,0.3,0,0.4,0c14.3,2.8,23.2-2.2,26.6-14.7c1.9-7.1,1.5-14.9,1.2-18.8c-14.5,3-24.4-3.9-28.2-7.2      c-3.8,3.4-13.7,10.2-28.2,7.2c-0.4,3.9-0.8,11.6,1.2,18.8c3.4,12.5,12.3,17.5,26.6,14.7C869.3,313.1,869.4,313.1,869.6,313.1z" />
			</g>
			<g>
				<path fill="#FFE19B" d="M869.6,289.4c-15.4,0.3-24.6,5.7-29.3,9.7c2.8,10.5,10.4,20,29.3,16.4c18.9,3.7,26.5-5.8,29.3-16.4      C894.2,295.1,885,289.7,869.6,289.4z" />
				<path fill="#3C2415" d="M877.4,318.6c-2.4,0-5-0.2-7.8-0.8c-21,3.9-28.7-7.7-31.5-18.1c-0.2-0.9,0.1-1.8,0.7-2.4      c5.3-4.5,14.9-10,30.7-10.3c0,0,0.1,0,0.1,0c15.8,0.3,25.5,5.8,30.7,10.3c0.7,0.6,1,1.5,0.7,2.4      C898.7,308.7,892.6,318.6,877.4,318.6z M869.6,313.1c0.1,0,0.3,0,0.4,0c13.7,2.7,22.5-1.8,26.2-13.3c-4.9-3.8-13.3-8-26.6-8.2      c-13.3,0.3-21.7,4.4-26.6,8.2c3.7,11.5,12.5,15.9,26.2,13.3C869.3,313.1,869.4,313.1,869.6,313.1z" />
			</g>
			<circle fill="#3C2415" cx="941.5" cy="257.5" r="10.1" />
			<ellipse fill="#EF4136" cx="955.3" cy="279" rx="13.7" ry="5.3" />
			<g>
				<path fill="#F7941D" d="M982.2,357.3c0,0-20.2-25,16.8-47.2c0,0-1.5,12.4,4.4,21.7c0,0,10.4,14.4-8.1,28.6L982.2,357.3z" />
				<path fill="#3C2415" d="M995.3,362.7c-0.2,0-0.4,0-0.5-0.1l-13.1-3.1c-0.5-0.1-0.9-0.4-1.3-0.8c-0.3-0.4-7.9-9.9-5.6-22.7      c1.8-10.5,9.6-19.9,23-27.9c0.8-0.5,1.7-0.4,2.4,0c0.7,0.5,1.1,1.3,1,2.2c0,0.1-1.3,11.7,4.1,20.2c0,0,11.4,16.3-8.6,31.7      C996.3,362.5,995.8,362.7,995.3,362.7z M983.5,355.2l11.2,2.7c15.4-12.5,7.1-24.3,6.8-24.8c-4.1-6.5-5-14-5-18.8      c-9.9,6.8-15.7,14.3-17.1,22.4C977.7,345.9,982.1,353.1,983.5,355.2z" />
			</g>
			<g>
				<path fill="#F9A86D" d="M982.2,357.3c-8.1,16.1-24.4,24.3-34.1,28c0.2,8.5-0.4,13.7-0.4,13.7c-0.6,8-2.3,14.9-4.7,20.9      c38.5-16.3,52.3-59.4,52.3-59.4L982.2,357.3z" />
				<path fill="#3C2415" d="M943,422.1c-0.6,0-1.2-0.2-1.6-0.7c-0.7-0.7-0.9-1.6-0.5-2.5c2.4-6,3.9-12.8,4.5-20.2      c0-0.1,0.6-5.2,0.4-13.5c0-1,0.6-1.9,1.5-2.2c8.9-3.3,25-11.2,32.9-26.8c0.5-1,1.6-1.5,2.6-1.2l13.1,3.1      c0.6,0.1,1.2,0.6,1.5,1.1c0.3,0.6,0.4,1.2,0.2,1.8c-0.6,1.8-14.6,44.3-53.6,60.8C943.6,422.1,943.3,422.1,943,422.1z       M950.4,386.8c0.1,7.6-0.4,12.2-0.4,12.4c-0.5,5.7-1.5,11.2-3,16.2c28.5-14.7,41.9-44.7,45.3-53.4l-8.9-2.1      C975.1,375,959.8,383.1,950.4,386.8z" />
			</g>
			<g>
				<path fill="#F9A86D" d="M942.8,346.9c14,8,66.5,39.4,4.6,26.3C946.6,365.5,945.3,356.6,942.8,346.9z" />
				<path fill="#3C2415" d="M969.7,378.7c-4.7,0-11.9-0.9-22.8-3.2c-1-0.2-1.7-1-1.8-2c-0.8-8.8-2.3-17.5-4.5-25.9      c-0.2-0.9,0.1-1.9,0.8-2.4c0.7-0.6,1.7-0.6,2.5-0.2c38.1,21.8,35.8,27.8,35,30C978.1,377,976.2,378.7,969.7,378.7z M949.5,371.3      c22.1,4.5,24.9,2.2,25.1,1.9c0-1.9-7.5-9.3-28.3-21.6C947.7,358.1,948.8,364.7,949.5,371.3z" />
			</g>
		</g>
		
  </g>
</svg>
