<?xml version="1.0" encoding="utf-8"?>
<svg xmlns="http://www.w3.org/2000/svg" xmlns:xlink="http://www.w3.org/1999/xlink"
     width="334" height="364" viewBox="382 126 334 364">
  <g>
    <path xmlns="http://www.w3.org/2000/svg" fill="#E8E6D2" d="M678.5,303.3c-0.6-0.4-14.6-8.4-34.7,0.3c-0.5-2.1-1.1-4.3-1.7-6.6c0.5-3.1,2.6-17.6,0.2-35    c15.9-10.7,49.2-42.3,46.2-117.5c0-1.2-1-2.2-2.2-2.2c-0.5,0-58.3-1.1-98.2,52.4c-12.5-4-27.1-5.8-43.5-5.4    c-16.5-0.4-31.1,1.4-43.7,5.4c-39.9-53.5-97.7-52.4-98.2-52.4c-1.2,0-2.2,1-2.2,2.2c-3,75.2,30.3,106.8,46.2,117.5    c-2.4,17.4-0.3,31.9,0.2,35c-5.5,18.2-4.3,33.2,3.5,44.8c9.8,14.4,27.3,19.3,36.2,20.9c-4.8,4.3-6.8,8.2-6.2,11.8    c0.4,2.3,1.8,3.9,3.3,5c-3.9,5.9-4.8,10.3-2.9,13.4c1.4,2.3,4.1,3.2,6.4,3.4c-19,36-10.1,53.6-8.9,55.7c10,23.5,30.8,16.2,31.2,16    c17.3-8.4,25.7-8.4,34.7-8.4h1.1c9,0,17.4,0,34.9,8.5c0.1,0,3.2,1.1,7.6,1.1c7,0,17.2-2.8,23.4-17.3c0.3-0.6,1.3-2.4,2.1-5.6    c7.5-0.4,35.4-3.2,51.7-22.3c10-11.7,13.6-27.2,10.8-46.1c-0.5-3.3-1.2-6.6-2-9.9c7.1-0.6,24-4.5,25.9-27.8    C699.3,339.4,701.2,313.1,678.5,303.3z" />
		
    <g xmlns="http://www.w3.org/2000/svg">
			<g>
				<path fill="#D7B07F" d="M634,291.5c0,0,20.3-108.6-95.3-105.6c-115.6-3.1-95.3,105.6-95.3,105.6c-18.5,59.6,42.9,63.9,42.9,63.9      c-18,13.3-5.1,17.5-5.1,17.5c-13.1,18,4,15.3,4,15.3c-22,39.3-10.8,57-10.8,57c9.2,21.9,28.1,15,28.1,15      c18.1-8.8,27-8.7,36.2-8.7c9.2,0,18.1-0.2,36.2,8.7c0,0,18.9,6.9,28.1-15c0,0,11.2-17.8-10.8-57c0,0,17.1,2.7,4-15.3      c0,0,12.8-4.1-5.1-17.5C591.1,355.4,652.5,351.1,634,291.5z" />
				<path fill="#3C2415" d="M581.7,463.5c-4.4,0-7.5-1.1-7.6-1.1c-17.5-8.5-25.9-8.5-34.9-8.5h-1.1c-8.9,0-17.4,0-34.7,8.4      c-0.4,0.2-21.2,7.5-31.2-16c-1.2-2.1-10.1-19.7,8.9-55.7c-2.3-0.3-5-1.1-6.4-3.4c-1.9-3.1-0.9-7.5,2.9-13.4      c-1.5-1.1-2.9-2.7-3.3-5c-0.6-3.6,1.5-7.4,6.2-11.8c-8.8-1.6-26.3-6.5-36.2-20.9c-7.9-11.5-9.1-26.6-3.5-44.8      c-1-5.7-7.2-49.2,18.6-79.5c16.8-19.7,43.4-29.2,79.1-28.2c35.6-1,62.2,8.5,79,28.2c25.8,30.3,19.5,73.7,18.6,79.5      c5.5,18.2,4.3,33.2-3.5,44.8c-9.8,14.4-27.3,19.3-36.2,20.9c4.8,4.3,6.8,8.2,6.2,11.8c-0.4,2.3-1.8,3.9-3.3,5      c3.9,5.9,4.8,10.3,2.9,13.4c-1.4,2.3-4.1,3.2-6.4,3.4c19,36,10.1,53.6,8.9,55.7C598.9,460.7,588.7,463.5,581.7,463.5z       M539.8,449.2c8.9,0,18.3,0.2,36.2,8.9c0.5,0.2,16.7,5.7,25-13.8c0-0.1,0.1-0.2,0.2-0.3c0.1-0.2,10-17.4-10.8-54.7      c-0.4-0.8-0.4-1.7,0.1-2.4c0.5-0.7,1.4-1.1,2.2-1c2,0.3,5.2,0.1,6-1.2c0.4-0.6,1.1-3.1-4.2-10.4c-0.4-0.6-0.6-1.4-0.3-2.1      c0.2-0.7,0.8-1.3,1.5-1.5c0,0,2.5-0.9,2.8-2.7c0.2-1.2-0.3-4.5-8.6-10.7c-0.8-0.6-1.1-1.6-0.8-2.5c0.3-0.9,1.1-1.6,2.1-1.7      c0.3,0,26.1-2.1,38.1-19.7c7.1-10.4,8-24.3,2.8-41.3c-0.1-0.4-0.1-0.7-0.1-1.1c0.1-0.5,8.2-46.2-17.5-76.2      c-15.9-18.6-41.2-27.5-75.5-26.6c-34.4-0.9-59.8,8-75.6,26.6c-25.7,30.1-17.5,75.7-17.4,76.2c0.1,0.4,0,0.8-0.1,1.1      c-5.3,17-4.3,30.9,2.8,41.3c12,17.6,37.8,19.6,38.1,19.6c1,0.1,1.8,0.7,2.1,1.7c0.3,0.9-0.1,1.9-0.8,2.5      c-8.3,6.2-8.8,9.6-8.6,10.7c0.3,1.8,2.8,2.7,2.8,2.7c0.7,0.2,1.3,0.8,1.5,1.5c0.2,0.7,0.1,1.5-0.3,2.1      c-5.4,7.3-4.6,9.8-4.2,10.4c0.8,1.4,4.3,1.5,6,1.2c0.9-0.1,1.8,0.2,2.3,1c0.5,0.7,0.6,1.7,0.1,2.4      c-20.9,37.3-10.9,54.5-10.8,54.7c0.1,0.1,0.1,0.2,0.2,0.3c8.2,19.6,24.5,14,25.2,13.7c18-8.8,27.5-8.8,36.5-8.8h1.1      C539.4,449.2,539.6,449.2,539.8,449.2z" />
			</g>
			<g>
				<path fill="#D7B07F" d="M494.2,191.7c-39.7-54.5-97.3-52.8-97.3-52.8c-3.1,76.9,32.4,107.3,46.5,116.3      C446.9,231.9,458.9,203.7,494.2,191.7z" />
				<path fill="#3C2415" d="M443.4,257.6c-0.4,0-0.9-0.1-1.2-0.4c-15.3-9.8-50.6-41-47.5-118.3c0-1.2,1-2.2,2.2-2.2      c0.6,0,59.3-1.1,99.2,53.7c0.4,0.6,0.6,1.4,0.3,2.1c-0.2,0.7-0.8,1.3-1.5,1.5c-34.8,11.8-46,40.1-49.3,61.7      c-0.1,0.8-0.6,1.4-1.3,1.8C444,257.5,443.7,257.6,443.4,257.6z M399.2,141.3c-2.1,68.7,26.9,98.9,42.5,110      c4.1-21.7,16-48.3,48.8-60.7C456.4,145.9,409.7,141.7,399.2,141.3z" />
			</g>
			<path fill="#3C2415" d="M471.6,203.7L471.6,203.7c-28.2-40.4-59.2-46.6-59.2-46.6c6.9,51.5,38.4,73,38.4,73l0,0     C455.2,220.5,461.8,211.2,471.6,203.7z" />
			<g>
				<path fill="#D7B07F" d="M489.3,447.6c0,0,0.6-19.5,16-32.1c0,0,12.7-9.4,11.4,7.8c-0.1,1.9-0.5,3.7-1,5.5      c-1.6,5.9-6,20.4-12.7,24.8C503.1,453.7,489.3,463.7,489.3,447.6z" />
				<path fill="#3C2415" d="M495.1,459.1c-1.2,0-2.4-0.2-3.5-0.8c-3-1.6-4.6-5.1-4.6-10.7c0,0,0,0,0-0.1c0-0.8,0.8-20.7,16.8-33.8      c0.8-0.6,6.8-4.8,11.3-2.3c3.1,1.7,4.3,5.7,3.8,12.1c-0.1,1.9-0.5,3.9-1,5.9c-2.1,7.8-6.6,21.5-13.6,26.1      C503.8,456,499.4,459.1,495.1,459.1z M491.6,447.7c0,3.5,0.7,5.8,2.1,6.5c2.1,1.1,6.3-1.1,8-2.4c4.2-2.8,8.6-11.6,11.8-23.5      c0.5-1.8,0.8-3.5,0.9-5.1c0.3-4.1-0.2-7-1.5-7.7c-1.5-0.8-4.8,0.8-6.2,1.9C492.7,428.8,491.7,446.8,491.6,447.7z" />
			</g>
			<path fill="#3C2415" d="M498.4,414c-4.2,0-8.8-4.5-9.4-5.1c-0.6-0.6-0.6-1.6,0-2.2c0.6-0.6,1.6-0.6,2.2,0c1.7,1.7,5.8,5,8,4.1     c1.6-0.7,2.4-4.1,2.3-9.4c0-0.9,0.6-1.6,1.5-1.6c0.9-0.1,1.6,0.6,1.6,1.5c0.3,7-1.1,11-4.1,12.3C499.8,413.9,499.1,414,498.4,414     z" />
			<path fill="#3C2415" d="M532.3,294.7c-2.7,0-4.7-0.7-6-2.2c-3.5-4-0.4-11.4,0-12.2c0.3-0.8,1.3-1.1,2-0.8c0.8,0.3,1.1,1.3,0.8,2     c-0.7,1.6-2.4,6.8-0.5,8.9c1.4,1.6,4.7,1.6,9.6,0.1c0.8-0.2,1.7,0.2,1.9,1c0.2,0.8-0.2,1.7-1,1.9     C536.5,294.3,534.2,294.7,532.3,294.7z" />
			<circle fill="#EF4136" cx="480.3" cy="292.2" r="9.1" />
			<circle fill="#3C2415" cx="493.5" cy="279.6" r="10.6" />
			<g>
				<path fill="#D7B07F" d="M583.2,191.7c39.7-54.5,97.3-52.8,97.3-52.8c3.1,76.9-32.4,107.3-46.5,116.3      C630.4,231.9,618.5,203.7,583.2,191.7z" />
				<path fill="#3C2415" d="M634,257.6c-0.3,0-0.6-0.1-1-0.2c-0.7-0.3-1.2-1-1.3-1.8c-3.3-21.6-14.5-49.9-49.3-61.7      c-0.7-0.2-1.2-0.8-1.5-1.5c-0.2-0.7-0.1-1.5,0.3-2.1c40-54.9,98.7-53.7,99.2-53.7c1.2,0,2.2,1,2.2,2.2      c3.1,77.3-32.2,108.5-47.5,118.3C634.9,257.4,634.4,257.6,634,257.6z M586.9,190.6c32.8,12.4,44.8,39,48.8,60.7      c15.6-11.2,44.7-41.3,42.5-110C667.7,141.7,620.9,146,586.9,190.6z" />
			</g>
			<g>
				<path fill="#F5EAB1" d="M596.2,372.9c0,0,12.8-4.1-5.1-17.5c-4.6-11.6-24.4-7.2-24.4-7.2c15.4-19.5-28-3.6-28-3.6      s-43.4-15.9-28,3.6c0,0-19.8-4.4-24.4,7.2c-18,13.3-5.1,17.5-5.1,17.5c-13.1,18,4,15.3,4,15.3s-0.4,20.6,24,0      c0,0-4.4,16,16.2,4.6c0,0,2.3,15.7,13.3,4.6c11,11.1,13.3-4.6,13.3-4.6c20.6,11.4,16.2-4.6,16.2-4.6c24.4,20.6,24,0,24,0      S609.3,390.9,596.2,372.9z" />
				<path fill="#3C2415" d="M545.7,402.9c-2.1,0-4.5-1.1-7-3.4c-3.2,2.9-6.2,4-8.8,3.1c-3.4-1.1-4.9-5-5.6-7.5      c-7,3.6-11.8,4.3-14.7,2c-1.7-1.4-2.3-3.5-2.3-5.4c-8.2,6.4-14.3,8.5-18.6,6.4c-3.6-1.7-4.6-5.9-4.9-8.3      c-2.4,0.1-6.4-0.2-8.2-3.2c-1.8-2.9-0.7-7.3,3.3-13.2c-1.4-0.9-3.2-2.4-3.6-4.9c-0.7-4.1,2.5-8.7,9.8-14.2      c4-9.1,16.1-9,22.3-8.3c-1.3-2.2-2.2-4.9-0.8-7c4.1-5.7,24.9,1.2,32.1,3.8c7.1-2.6,27.9-9.5,32.1-3.8c1.5,2.1,0.5,4.8-0.8,7      c6.2-0.7,18.3-0.8,22.3,8.3c7.3,5.5,10.5,10.1,9.8,14.2c-0.4,2.5-2.2,4-3.6,4.9c4,5.9,5.1,10.3,3.3,13.2c-1.8,3-5.9,3.3-8.2,3.2      c-0.3,2.4-1.3,6.6-4.9,8.3c-4.3,2-10.4-0.1-18.6-6.4c-0.1,1.9-0.6,4-2.3,5.4c-2.8,2.2-7.7,1.6-14.7-2c-0.7,2.5-2.3,6.4-5.6,7.5      C546.9,402.8,546.3,402.9,545.7,402.9z M525.3,391.2c0.2,0,0.5,0.1,0.7,0.2c0.5,0.2,0.8,0.7,0.8,1.2c0.2,1.6,1.5,6.3,4,7.1      c2.1,0.7,4.8-1.5,6.7-3.4c0.6-0.6,1.6-0.6,2.2,0c1.9,1.9,4.6,4.1,6.7,3.4c2.5-0.8,3.8-5.5,4-7.1c0.1-0.5,0.4-0.9,0.8-1.2      c0.5-0.2,1-0.2,1.4,0c8.8,4.9,12,4.1,13.1,3.3c1.7-1.3,1.2-4.9,0.8-6.1c-0.2-0.7,0.1-1.3,0.7-1.7c0.6-0.4,1.3-0.3,1.8,0.1      c11.2,9.5,16.2,9.3,18.2,8.4c3.3-1.6,3.3-7.1,3.3-7.2c0-0.5,0.2-0.9,0.5-1.2c0.3-0.3,0.8-0.4,1.3-0.4c1.4,0.2,5.6,0.4,6.8-1.6      c0.7-1.1,1-4-4.3-11.3c-0.3-0.4-0.4-0.9-0.2-1.4c0.2-0.5,0.5-0.8,1-1c0.1,0,3-1,3.3-3.3c0.3-1.6-0.6-5.2-8.9-11.4      c-0.2-0.2-0.4-0.4-0.5-0.7c-4.1-10.2-22.5-6.3-22.6-6.2c-0.6,0.1-1.3-0.1-1.6-0.7c-0.3-0.6-0.3-1.3,0.1-1.8      c2.8-3.6,3.3-5.6,2.8-6.3c-2-2.7-16.6,0.5-29,5.1c-0.3,0.1-0.7,0.1-1.1,0c-12.4-4.6-27.1-7.8-29-5.1c-0.5,0.7,0,2.7,2.8,6.3      c0.4,0.5,0.4,1.2,0.1,1.8c-0.3,0.6-1,0.8-1.6,0.7c-0.2,0-18.6-4-22.6,6.2c-0.1,0.3-0.3,0.5-0.5,0.7c-8.4,6.2-9.2,9.9-8.9,11.5      c0.4,2.3,3.3,3.3,3.3,3.3c0.5,0.2,0.8,0.5,1,1c0.2,0.5,0.1,1-0.2,1.4c-5.3,7.2-4.9,10.2-4.3,11.3c1.2,2,5.4,1.8,6.8,1.6      c0.5-0.1,0.9,0.1,1.2,0.4c0.3,0.3,0.5,0.7,0.5,1.2c0,0.1,0,5.6,3.3,7.2c2,0.9,7,1.1,18.2-8.4c0.5-0.4,1.3-0.5,1.8-0.1      c0.6,0.4,0.8,1.1,0.7,1.7c-0.3,1.3-0.8,4.8,0.8,6.1c1.1,0.9,4.3,1.6,13.1-3.3C524.8,391.3,525.1,391.2,525.3,391.2z" />
			</g>
			<path fill="#3C2415" d="M605.8,203.7L605.8,203.7C634.1,163.3,665,157,665,157c-6.9,51.5-38.4,73-38.4,73l0,0     C622.2,220.5,615.6,211.2,605.8,203.7z" />
			<g>
				<path fill="#D7B07F" d="M588.1,447.6c0,0-0.6-19.5-16-32.1c0,0-12.7-9.4-11.4,7.8c0.1,1.9,0.5,3.7,1,5.5      c1.6,5.9,6,20.4,12.7,24.8C574.3,453.7,588.1,463.7,588.1,447.6z" />
				<path fill="#3C2415" d="M582.3,459.1c-4.4,0-8.8-3.1-9.4-3.5c-7-4.6-11.5-18.3-13.5-26.1c-0.5-2.1-0.9-4.1-1-5.9      c-0.5-6.4,0.7-10.3,3.8-12.1c4.6-2.5,10.6,1.7,11.2,2.2c16.1,13.2,16.9,33.1,16.9,33.9c0,0,0,0,0,0.1c0,5.5-1.5,9.1-4.6,10.7      C584.7,458.8,583.5,459.1,582.3,459.1z M565.5,415.3c-0.4,0-0.7,0.1-1,0.2c-1.2,0.7-1.8,3.6-1.5,7.7c0.1,1.6,0.4,3.3,0.9,5.1      c3.2,11.9,7.5,20.7,11.7,23.4c1.8,1.3,6,3.5,8.1,2.4c1.3-0.7,2.1-3,2.1-6.5c0-0.8-1-18.8-15.1-30.4      C569.4,416.4,567.1,415.3,565.5,415.3z" />
			</g>
			<path fill="#3C2415" d="M579,414c-0.7,0-1.4-0.1-2-0.4c-3-1.3-4.4-5.3-4.1-12.3c0-0.9,0.7-1.6,1.6-1.5c0.9,0,1.5,0.7,1.5,1.6     c-0.2,5.3,0.6,8.7,2.3,9.4c2.2,0.9,6.3-2.3,8-4.1c0.6-0.6,1.6-0.6,2.2,0c0.6,0.6,0.6,1.6,0,2.2C587.8,409.5,583.2,414,579,414z" />
			<path fill="#3C2415" d="M545.1,294.7c-1.9,0-4.2-0.4-6.9-1.2c-0.8-0.2-1.3-1.1-1-1.9c0.2-0.8,1.1-1.3,1.9-1     c4.9,1.5,8.2,1.4,9.6-0.1c1.9-2.2,0.2-7.3-0.5-8.9c-0.3-0.8,0-1.7,0.8-2c0.8-0.3,1.7,0,2,0.8c0.4,0.8,3.5,8.2,0,12.2     C549.8,294,547.8,294.7,545.1,294.7z" />
			<circle fill="#EF4136" cx="597.1" cy="292.2" r="9.1" />
			<circle fill="#3C2415" cx="583.9" cy="279.6" r="10.6" />
			<g>
				<path fill="#D7B07F" d="M691.2,334.3c-2.3,27.5-26.6,25.8-26.6,25.8c1.2,4.4,2.1,8.6,2.7,12.5c9.6,65.1-62.1,65.9-62.1,65.9      c4.4-19.4-13-50.2-13-50.2c18.1,1.8,4-15.3,4-15.3c12.3-6-5.1-17.5-5.1-17.5c14.4-2.1,24.5-6.4,31.5-11.7      c21.6-16.4,13.9-42.5,13.9-42.5c20.6-10.3,35.2-1.7,35.2-1.7C693.6,309,691.2,334.3,691.2,334.3z" />
				<path fill="#3C2415" d="M605.2,440.7c-0.7,0-1.4-0.3-1.8-0.9c-0.4-0.5-0.6-1.3-0.5-2c4.1-18.3-12.6-48.3-12.8-48.6      c-0.4-0.8-0.4-1.7,0.1-2.4c0.5-0.7,1.3-1.1,2.2-1c3.5,0.3,5.9-0.1,6.5-1.1c1-1.9-1.9-7.3-4.5-10.4c-0.4-0.5-0.6-1.3-0.5-2      c0.1-0.7,0.6-1.3,1.2-1.6c2-1,3-2.1,3.1-3.3c0.2-3.3-5.6-8.3-8.5-10.2c-0.8-0.5-1.2-1.5-1-2.4c0.2-0.9,1-1.6,1.9-1.8      c12.7-1.8,23-5.6,30.4-11.2c20.1-15.2,13.3-39,13-40c-0.3-1.1,0.2-2.2,1.2-2.7c21.5-10.7,36.8-2,37.4-1.6      c22.7,9.8,20.8,36.1,20.8,36.9l0,0c-2,23.3-18.8,27.2-25.9,27.8c0.8,3.3,1.5,6.6,2,9.9c2.8,18.9-0.8,34.5-10.8,46.1      C640.2,440.1,606.7,440.7,605.2,440.7C605.3,440.7,605.2,440.7,605.2,440.7z M596.1,390.6c4.2,8.3,13.8,29.3,11.9,45.4      c8.3-0.6,33.1-4,47.3-20.7c9.1-10.6,12.3-24.9,9.7-42.4c-0.6-4.1-1.5-8.2-2.6-12.2c-0.2-0.7,0-1.5,0.4-2.1      c0.5-0.6,1.2-0.9,2-0.8c0.9,0.1,22,1.2,24.1-23.7c0,0,0,0,0,0c0.1-1,1.9-23.7-18.2-32.4c-0.8-0.4-13.3-7.5-31.6,0.8      c1.3,6.6,4,28.5-15.1,43.1c-7,5.3-16.2,9.1-27.3,11.2c3.1,2.7,6.5,6.8,6.3,11c-0.1,1.6-0.8,3.8-3.3,5.7      c2.3,3.3,5.6,9.2,3.4,13.4C601.9,389.1,599.6,390.3,596.1,390.6z" />
			</g>
			<g>
				<path fill="#F5EAB1" d="M691.2,334.3c-2.3,27.5-26.6,25.8-26.6,25.8c1.2,4.4,2.1,8.6,2.7,12.5c-11.9,5.3-13.9-4.2-13.9-4.2      c-1.2-7.8-8.3-4.6-8.3-4.6c-8.1,4.2-9.1-3.8-9.1-3.8c-0.3-6.6-7.4-5.9-7.4-5.9c-11-0.8-6.1-10.3-6.1-10.3      c21.6-16.4,13.9-42.5,13.9-42.5c20.6-10.3,35.2-1.7,35.2-1.7C693.6,309,691.2,334.3,691.2,334.3z" />
				<path fill="#3C2415" d="M660.9,375.7c-1.6,0-3-0.3-4.3-1c-3.7-1.9-4.7-5.9-4.7-6c-0.3-1.9-0.9-3.1-2-3.6      c-1.7-0.9-4.2,0.1-4.2,0.1c-2.9,1.5-5.5,1.8-7.6,0.7c-3.1-1.6-3.6-5.5-3.6-5.7c-0.1-1.6-0.5-2.6-1.3-3.3      c-1.6-1.4-4.3-1.2-4.4-1.2c-4.1-0.3-6.7-1.6-8-3.9c-2.1-3.7,0.3-8.5,0.4-8.7c0.1-0.2,0.3-0.4,0.4-0.5      c20.5-15.6,13.6-39.8,13.3-40.9c-0.2-0.7,0.1-1.5,0.8-1.8c21.2-10.5,36-2,36.7-1.6c22.3,9.6,20.4,35.5,20.4,36.2l0,0      c-2,23.8-19.9,26.8-26.1,27.2c0.9,3.5,1.6,7.1,2.2,10.7c0.1,0.7-0.3,1.4-0.9,1.6C665.4,375.1,663,375.7,660.9,375.7z       M654.9,368.1c0,0,0.7,2.7,3.1,3.9c1.9,0.9,4.5,0.8,7.6-0.4c-0.6-3.7-1.5-7.5-2.5-11.1c-0.1-0.5,0-1,0.3-1.4      c0.3-0.4,0.8-0.6,1.3-0.6c0.9,0.1,22.8,1.2,25-24.4c0,0,0,0,0,0c0.1-1,1.9-24.3-18.7-33.1c-0.3-0.2-13.8-7.8-32.8,1.1      c1.2,5.6,4.7,27.9-14.4,42.7c-0.5,1.2-1.3,3.8-0.3,5.5c0.8,1.3,2.5,2.1,5.3,2.3c-0.1,0,3.8-0.4,6.4,1.9c1.5,1.3,2.3,3.1,2.4,5.4      l0,0c0,0,0.4,2.4,2,3.2c1.4,0.7,3.4,0,4.8-0.8c0.2-0.1,3.9-1.7,7,0C653.3,363.4,654.5,365.3,654.9,368.1      C654.9,368.1,654.9,368.1,654.9,368.1z" />
			</g>
		</g>
		
  </g>
</svg>
