<?xml version="1.0" encoding="utf-8"?>
<svg xmlns="http://www.w3.org/2000/svg" xmlns:xlink="http://www.w3.org/1999/xlink"
     width="298" height="296" viewBox="1061 588 298 296">
  <g>
    <path xmlns="http://www.w3.org/2000/svg" fill="#E8E6D2" d="M1340.9,746.9c-1.6-17.2-6.2-32.8-13.6-46.8l0.5-1.8c3.7-15.1,12.5-50.4-7.4-92.4c-0.4-0.8-1.1-1.3-2-1.3    c-1.8-0.1-44.1-2.1-77.2,31.6c-8.7-1.7-18.2-2.6-28.4-2.2c-1,0-2.1,0-2.8,0.1c-5.8-0.3-11.5-0.3-17,0.2c-1.4,0.1-2.7,0.2-4.1,0.4    c0,0,0,0,0,0c-3.6,0.4-7.1,0.9-10.4,1.6c-33-33.6-75.3-31.7-77.1-31.6c-0.8,0-1.5,0.5-1.9,1.2c-20.5,38.5-10.8,78.6-7.2,93.6    l0.2,0.7c-7.4,14-12,29.6-13.6,46.8c-3.1,32.7,8.9,64.5,31.1,86c-12.9,15.4-17.5,25.8-13.6,30.9c1.2,1.6,3.2,3,7.4,3    c6.3,0,17.5-3,38.3-12.8c32.6,15.1,49.3,15.1,66.9,15.1h1.7c0.3,0,0.6,0,0.9,0c17.3,0,34-0.3,66.1-15.1    c20.8,9.8,32,12.8,38.3,12.8c4.2,0,6.2-1.4,7.4-3c3.9-5.1-0.7-15.5-13.6-30.9C1332,811.4,1344,779.7,1340.9,746.9z" />
		
    <g xmlns="http://www.w3.org/2000/svg">
			<g>
				<path fill="#FAC8C9" d="M1278.8,842.4c-38,19-55.7,18.7-74.7,18.7s-36.7,0.3-74.7-18.7c-36.4-18.1-58.1-58.3-54.1-101      c2.1-22,9.7-47.1,29.6-68.8c0,0,27.4-36,78.5-41.5c6.5-0.7,13.4-0.9,20.7-0.5c1-0.1,2-0.1,2.9-0.1c62.5-2.2,96.2,42.1,96.2,42.1      c19.9,21.8,27.5,46.8,29.6,68.8C1336.9,784.1,1315.2,824.3,1278.8,842.4z" />
				<path fill="#3C2415" d="M1205.9,863.4c-0.3,0-0.6,0-0.9,0h-1.7c-19-0.1-37,0-74.8-18.9c-37.2-18.5-59.4-60-55.3-103.2      c2.6-27.5,12.8-51.1,30.2-70.2c1-1.3,28.4-36.7,80-42.2c6.7-0.8,13.8-0.9,21-0.5c0.7-0.1,1.8-0.1,2.8-0.1      c62.9-2.3,97.7,42.6,98.1,43c17.3,18.9,27.4,42.5,30,70c4.1,43.2-18.1,84.7-55.3,103.2C1242.6,863.1,1224.6,863.4,1205.9,863.4z       M1204.2,858.7h0.9c0.3,0,0.6,0,0.8,0c18.1,0,35.6-0.3,71.9-18.4c0,0,0,0,0,0c35.5-17.7,56.7-57.3,52.8-98.7      c-2.5-26.5-12.3-49.2-29-67.5c-0.5-0.6-34.1-43.6-94.4-41.4c-1,0-1.9,0-2.8,0.1c-7.3-0.4-14.2-0.2-20.6,0.5      c-49.6,5.3-76.7,40.2-76.9,40.6c-16.8,18.5-26.6,41.2-29.1,67.7c-3.9,41.3,17.3,81,52.8,98.7c36.3,18.2,53.8,18.4,71.9,18.4      c0.3,0,0.6,0,0.8,0H1204.2z" />
			</g>
			<g>
				<path fill="#FAC8C9" d="M1129.5,842.4c-8.2-4.1-15.5-9.3-22.1-15.4c-10.3,12-41.7,52.2,29.1,18.6      C1134.2,844.6,1131.9,843.6,1129.5,842.4z" />
				<path fill="#3C2415" d="M1098,861.1c-4.2,0-6.2-1.4-7.4-3c-4-5.3,1-16.2,15.1-32.6c0.4-0.5,1-0.8,1.6-0.8      c0.6-0.1,1.2,0.2,1.7,0.6c6.6,6.1,13.9,11.2,21.5,15c2.2,1.1,4.5,2.2,6.9,3.2c0.8,0.4,1.4,1.2,1.4,2.1c0,0.9-0.5,1.7-1.3,2.1      C1116,857.9,1104.5,861.1,1098,861.1z M1107.7,830.3c-11.6,13.9-15.1,22.7-13.4,25c1,1.3,6.5,4.2,36.7-9.7      c-0.8-0.4-1.7-0.8-2.5-1.2l0,0C1121.1,840.8,1114.1,836,1107.7,830.3z" />
			</g>
			<g>
				<path fill="#FAC8C9" d="M1172,632.9c-7,1.5-13.5,3.5-19.4,5.8c-23.9,9.4-39.1,24.4-44.9,30.8c-1.8,2-2.7,3.1-2.7,3.1      c-6.5,7.1-11.7,14.6-15.8,22.2c-3.3-13.6-14.3-54.4,6.6-93.6C1095.8,601.1,1139.2,598.7,1172,632.9z" />
				<path fill="#3C2415" d="M1089.2,697.1c-0.1,0-0.2,0-0.3,0c-1-0.1-1.7-0.8-2-1.8l-0.4-1.6c-3.6-15.1-13.3-55.1,7.2-93.6      c0.4-0.7,1.1-1.2,1.9-1.2c1.8-0.1,44.9-2.1,78,32.5c0.6,0.6,0.8,1.5,0.5,2.3c-0.2,0.8-0.9,1.4-1.7,1.6c-6.4,1.3-12.8,3.2-19,5.7      c-23.6,9.3-38.7,24.2-44.1,30.2c-1.7,1.9-2.6,3-2.6,3c-6.2,6.7-11.4,14-15.5,21.9C1090.9,696.6,1090.1,697.1,1089.2,697.1z       M1097.2,603.4c-17.3,33.6-11,68.5-7.1,85.1c3.8-6.2,8.2-12.1,13.2-17.5c0,0,0.9-1.2,2.7-3.1c5.6-6.2,21.3-21.7,45.8-31.4      c5.2-2,10.4-3.7,15.6-5C1139.3,604.6,1104.4,603.5,1097.2,603.4z" />
			</g>
			<path fill="#3C2415" d="M1152.6,638.7c-23.9,9.4-39.1,24.4-44.9,30.8c-3.6-8.9-7.8-26-1.4-48.7     C1106.3,620.8,1135.1,619.1,1152.6,638.7z" />
			<ellipse fill="#3C2415" cx="1147.8" cy="749.4" rx="11.8" ry="12.6" />
			<ellipse fill="#EF4136" cx="1120.6" cy="764.1" rx="14.1" ry="7.7" />
			<path fill="#3C2415" d="M1193.7,749.5c-10.6,0-16.3-9.3-16.4-9.4c-0.7-1.1-0.3-2.5,0.8-3.2c1.1-0.7,2.5-0.3,3.2,0.8     c0.3,0.5,7.8,12.4,21.8,4.3c1.1-0.6,2.5-0.3,3.2,0.8s0.3,2.5-0.8,3.2C1201,748.6,1197.1,749.5,1193.7,749.5z" />
			<path fill="#3C2415" d="M1153.9,815.7c-8.1,0-22.2-11.4-28.6-17c-1-0.8-1.1-2.3-0.2-3.3c0.8-1,2.3-1.1,3.3-0.2     c11.5,10,24,17.5,26.2,15.8c0.1-0.1,3.2-2.9-8.8-25.8c-0.6-1.1-0.2-2.5,1-3.1c1.1-0.6,2.5-0.2,3.1,1c9.8,18.6,12,28.1,7.6,31.6     C1156.5,815.4,1155.3,815.7,1153.9,815.7z" />
			<g>
				<path fill="#0BA24A" d="M1151.1,790.8l8.5-4.3l4.5,13.1l-8.2,3.1C1155.9,802.6,1152.6,793.7,1151.1,790.8z" />
				<path fill="#3C2415" d="M1155.9,804.9c-0.3,0-0.7-0.1-1-0.2c-0.6-0.3-1-0.7-1.2-1.3c0-0.1-3.3-8.9-4.6-11.6      c-0.6-1.1-0.1-2.5,1-3.1l8.5-4.3c0.6-0.3,1.3-0.3,1.9-0.1c0.6,0.3,1.1,0.8,1.3,1.4l4.5,13.1c0.4,1.2-0.2,2.5-1.4,2.9l-8.2,3.1      C1156.4,804.9,1156.2,804.9,1155.9,804.9z M1154.1,791.8c1,2.4,2.3,5.7,3.1,7.8l3.9-1.5l-2.9-8.4L1154.1,791.8z" />
			</g>
			<g>
				<path fill="#0BA24A" d="M1174.5,771.8c-7.9,0-14.2,6.4-15,14.6l0.1,0.1l4.5,13.1c2.7,2.8,6.4,4.5,10.4,4.5      c8.3,0,15.1-7.2,15.1-16.1C1189.6,779,1182.8,771.8,1174.5,771.8z" />
				<path fill="#3C2415" d="M1174.5,806.4c-4.5,0-8.8-1.8-12.1-5.2c-0.2-0.2-0.4-0.5-0.5-0.9l-4.4-12.8c-0.2-0.4-0.3-0.8-0.3-1.3      c0.8-9.5,8.3-16.7,17.3-16.7c9.6,0,17.4,8.3,17.4,18.4C1191.9,798.1,1184.1,806.4,1174.5,806.4z M1166.1,798.3      c2.3,2.2,5.3,3.4,8.4,3.4c7,0,12.8-6.2,12.8-13.8c0-7.6-5.7-13.8-12.8-13.8c-6.4,0-11.7,5.1-12.6,11.9L1166.1,798.3z" />
			</g>
			<g>
				<path fill="#FAC8C9" d="M1278.8,842.4c8.2-4.1,15.5-9.3,22.1-15.4c10.3,12,41.7,52.2-29.1,18.6      C1274.1,844.6,1276.5,843.6,1278.8,842.4z" />
				<path fill="#3C2415" d="M1310.3,861.1c-6.4,0-17.9-3.2-39.5-13.4c-0.8-0.4-1.3-1.2-1.3-2.1c0-0.9,0.6-1.7,1.4-2.1      c2.3-1,4.7-2.1,6.9-3.2l0,0c7.7-3.8,14.9-8.9,21.5-15c0.5-0.4,1.1-0.6,1.7-0.6c0.6,0,1.2,0.3,1.6,0.8      c14,16.4,19.1,27.3,15.1,32.6C1316.5,859.7,1314.5,861.1,1310.3,861.1z M1277.4,845.7c30.2,13.8,35.7,10.9,36.7,9.7      c1.7-2.3-1.8-11-13.4-25c-6.4,5.7-13.4,10.4-20.8,14.1l0,0C1279,844.9,1278.2,845.3,1277.4,845.7z M1278.8,842.4L1278.8,842.4      L1278.8,842.4z" />
			</g>
			<g>
				<path fill="#FAC8C9" d="M1236.3,632.9c7,1.5,13.5,3.5,19.4,5.8c23.9,9.4,39.1,24.4,44.9,30.8c1.8,2,2.7,3.1,2.7,3.1      c6.5,7.1,11.7,14.6,15.8,22.2c3.3-13.6,14.3-49.7-6.6-93.6C1312.5,601.1,1269.1,598.7,1236.3,632.9z" />
				<path fill="#3C2415" d="M1319.1,697.1c-0.8,0-1.6-0.5-2-1.2c-4.2-7.8-9.4-15.1-15.4-21.7c-0.1-0.2-1-1.3-2.7-3.2      c-5.4-6-20.5-20.9-44.1-30.2c-6.3-2.4-12.7-4.4-19-5.7c-0.8-0.2-1.5-0.8-1.7-1.6c-0.2-0.8,0-1.7,0.5-2.3      c33.2-34.6,76.2-32.6,78-32.5c0.8,0,1.6,0.6,2,1.3c19.9,42,11.2,77.3,7.4,92.4l-0.7,2.7c-0.2,0.9-1,1.6-2,1.8      C1319.3,697.1,1319.2,697.1,1319.1,697.1z M1240.9,631.5c5.2,1.3,10.5,3,15.6,5c24.5,9.6,40.2,25.2,45.8,31.4      c1.9,2.1,2.8,3.3,2.8,3.3c4.9,5.3,9.3,11.2,13.1,17.4c3.8-15.7,10.1-47.7-7.2-85.2c-0.1,0-0.2,0-0.2,0      C1303.1,603.4,1268.6,605,1240.9,631.5z" />
			</g>
			<path fill="#3C2415" d="M1255.7,638.7c23.9,9.4,39.1,24.4,44.9,30.8c3.6-8.9,7.8-26,1.4-48.7     C1302,620.8,1273.3,619.1,1255.7,638.7z" />
			<ellipse fill="#3C2415" cx="1260.5" cy="749.4" rx="11.8" ry="12.6" />
			<ellipse fill="#EF4136" cx="1287.7" cy="764.1" rx="14.1" ry="7.7" />
			<path fill="#3C2415" d="M1214.6,749.5c-3.4,0-7.3-1-11.6-3.5c-1.1-0.6-1.5-2.1-0.8-3.2s2-1.5,3.2-0.8c13.9,8.1,21.5-3.8,21.8-4.3     c0.7-1.1,2.1-1.4,3.2-0.8c1.1,0.7,1.4,2.1,0.8,3.2C1231,740.3,1225.2,749.5,1214.6,749.5z" />
			<g>
				<path fill="#FFE19B" d="M1204.2,743.1c0,0-7.4,6.1-17.3,2.8c0,0,6.3,32.7,17.3,30.1c10.9,2.6,17.3-30.1,17.3-30.1      C1211.6,749.1,1204.2,743.1,1204.2,743.1z" />
				<path fill="#3C2415" d="M1205.4,778.4c-0.4,0-0.8,0-1.2-0.1c-1.9,0.3-3.9-0.1-5.7-1.3c-8.8-5.7-13.3-28.2-13.8-30.7      c-0.2-0.8,0.1-1.6,0.7-2.2c0.6-0.5,1.5-0.7,2.3-0.5c8.5,2.8,15-2.3,15.1-2.4c0.8-0.7,2.1-0.7,2.9,0c0.3,0.2,6.6,5.2,15.1,2.4      c0.8-0.3,1.6-0.1,2.3,0.5c0.6,0.5,0.9,1.4,0.7,2.2c-0.5,2.5-5.1,25.1-13.8,30.7C1208.4,778,1206.9,778.4,1205.4,778.4z       M1204.2,773.7c0.2,0,0.4,0,0.5,0.1c0.9,0.2,1.7,0,2.6-0.6c5.1-3.3,9.2-16.4,11-24.2c-6.6,0.9-11.8-1.6-14.2-3.1      c-2.4,1.5-7.6,4-14.2,3.1c1.9,7.8,5.9,20.9,11,24.2c0.9,0.6,1.8,0.8,2.6,0.6C1203.8,773.7,1204,773.7,1204.2,773.7z       M1204.2,743.1L1204.2,743.1L1204.2,743.1z" />
			</g>
			<path fill="#3C2415" d="M1254.4,815.7c-1.4,0-2.6-0.3-3.6-1.1c-4.4-3.5-2.2-12.9,7.6-31.6c0.6-1.1,2-1.6,3.1-1     c1.1,0.6,1.6,2,1,3.1c-12,22.9-9,25.7-8.8,25.8c2.3,1.8,14.8-5.7,26.2-15.8c1-0.8,2.4-0.7,3.3,0.2c0.8,1,0.7,2.4-0.2,3.3     C1276.6,804.3,1262.5,815.7,1254.4,815.7z" />
			<g>
				<path fill="#FAC8C9" d="M1211.7,693.7c-34.8,9.6-40-20.4-40-20.4c-3.1-19.3,3.5-33,11.8-42.2c6.5-0.7,13.4-0.9,20.7-0.5      c1-0.1,2-0.1,2.9-0.1c-1.7,8.3,2.6,17.5,11.5,20.3c0.1,0,0.1,0,0.2,0.1c5,1.7,8.4,6.8,9.1,12.4      C1229.8,679.6,1221.4,691,1211.7,693.7z" />
				<path fill="#3C2415" d="M1198.9,697.9c-6.2,0-11.6-1.5-16.2-4.4c-10.9-6.9-13.1-19.3-13.2-19.8c-2.8-17.1,1.4-32,12.4-44.1      c0.4-0.4,0.9-0.7,1.5-0.7c6.7-0.8,13.8-0.9,21.1-0.5c0.7-0.1,1.8-0.1,2.8-0.1c0.7,0,1.4,0.3,1.8,0.9c0.4,0.5,0.6,1.3,0.5,1.9      c-1.4,6.7,1.9,15.1,9.9,17.6c0.1,0,0.2,0.1,0.3,0.1c5.6,1.9,9.8,7.6,10.6,14.3c2.1,17.8-7.5,30-17.9,32.9l0,0      C1207.5,697.2,1203,697.9,1198.9,697.9z M1211.7,693.7L1211.7,693.7L1211.7,693.7z M1184.6,633.3c-9.6,11-13.2,24.3-10.7,39.6      c0,0.1,2,10.9,11.2,16.7c6.6,4.1,15.3,4.8,25.9,1.8l0,0c8.6-2.4,16.3-12.7,14.6-27.9c-0.6-5-3.5-9.2-7.5-10.5l0,0      c-0.1,0-0.1,0-0.2-0.1c-8.5-2.7-14-11.2-13.5-20.1c0,0-0.1,0-0.1,0C1197.3,632.5,1190.8,632.6,1184.6,633.3z" />
			</g>
		</g>
		
  </g>
</svg>
