<?xml version="1.0" encoding="utf-8"?>
<svg xmlns="http://www.w3.org/2000/svg" xmlns:xlink="http://www.w3.org/1999/xlink"
     width="298" height="324" viewBox="401 560 298 324">
  <g>
    <path xmlns="http://www.w3.org/2000/svg" fill="#E8E6D2" d="M682.9,735.6c-0.9-11.4-2.7-18.7-2.8-19c-0.2-0.8-0.8-1.4-1.5-1.6c-0.7-0.3-1.6-0.1-2.2,0.4l-3.7,3    c-2.5-15.3-7.7-32.4-18.4-44.7c4.2-7.3,20.8-38.8,8.4-54.5c-8.5-10.7-28.3-11.3-58.9-1.8c-4.9-8-27.4-42.1-54.1-42.1    c-26.7,0-49.2,34.2-54.1,42.1c-30.6-9.5-50.4-8.9-58.9,1.8c-12.4,15.7,4.3,47.2,8.4,54.5c-10.7,12.2-15.9,29.4-18.4,44.7l-3.7-3    c-0.6-0.5-1.4-0.6-2.2-0.4c-0.7,0.3-1.3,0.9-1.5,1.6c-0.1,0.3-1.9,7.6-2.8,19c0,0.4-0.1,0.8-0.1,1.3c0,0.2,0,0.3,0,0.5    c0,0.3,0,0.5-0.1,0.8c0,0.2,0,0.4,0,0.6c0,0.2,0,0.4,0,0.6c0,0.3,0,0.6,0,0.8c0,0.1,0,0.2,0,0.4c0,0.4,0,0.7-0.1,1.1    c0,0.1,0,0.2,0,0.3c0,0.4,0,0.8,0,1.2c0,0.1,0,0.2,0,0.3c0,0.4,0,0.8,0,1.2c0,0.1,0,0.2,0,0.3c0,0.5,0,1,0,1.5c0,0,0,0,0,0    c0,0,0,0,0,0c-0.1,9.8,0.7,19.1,2.4,27.9c0,0,0,0,0,0c0.7,3.5,1.5,7.2,2.6,11c5.1,17.7,14.1,32.7,26.6,44.6c0,0,0,0,0,0    c2.2,2,4.5,4,6.9,5.9c2.1,1.7,4.3,3.2,6.6,4.8c2.5,1.7,5.1,3.2,7.8,4.6c-13.6,13.7-13.1,18.7-11.4,21.2c1,1.5,2.8,2.8,6.8,2.8    c6.1,0,17.2-2.8,38.4-11.3c14.1,3.3,29.8,5.1,47,5.4c17.2-0.3,32.9-2.1,47-5.4c21.2,8.6,32.3,11.3,38.4,11.3    c4.1,0,5.8-1.2,6.8-2.8c1.7-2.6,2.2-7.5-11.4-21.2c2.6-1.4,5.2-3,7.8-4.6c4.8-3.2,9.3-6.8,13.4-10.6c0,0,0,0,0,0    c12.6-11.9,21.5-26.9,26.6-44.6c1.1-3.8,2-7.5,2.6-10.9c1.7-8.8,2.5-18.2,2.4-27.9C683.3,742.1,683.1,738.2,682.9,735.6    C682.9,735.6,682.9,735.6,682.9,735.6z" />
		
    <g xmlns="http://www.w3.org/2000/svg">
			<g>
				<path fill="#FFEBA8" d="M645.8,668.3c0,0,52.1-86-48.7-53.9c0,0-24.5-42.6-53.1-42.6v0c0,0,0,0,0,0c0,0,0,0,0,0v0      c-28.6,0-53.1,42.6-53.1,42.6c-100.8-32.2-48.7,53.9-48.7,53.9c-24.3,26.1-20.9,79.1-20.9,79.1H544h0h122.6      C666.6,747.3,670.1,694.3,645.8,668.3z" />
				<path fill="#3C2415" d="M666.6,749.7H421.4c-1.2,0-2.2-0.9-2.3-2.2c-0.1-2.2-3.2-52.7,20.3-79.5c-4.2-7.3-20.8-38.8-8.4-54.5      c8.5-10.7,28.3-11.4,58.9-1.8c4.9-8,27.4-42.1,54.1-42.1c26.7,0,49.2,34.2,54.1,42.1c30.6-9.5,50.4-8.9,58.9,1.8      c12.4,15.7-4.3,47.2-8.4,54.5c23.5,26.9,20.5,77.4,20.3,79.5C668.9,748.7,667.9,749.7,666.6,749.7z M666.6,747.3L666.6,747.3      L666.6,747.3z M423.6,745h240.8c0.3-10.1,0.3-53.1-20.3-75.2c-0.7-0.8-0.8-1.9-0.3-2.8c0.2-0.4,21.4-35.8,9.6-50.7      c-7.2-9.1-26.4-9-55.6,0.3c-1,0.3-2.2-0.1-2.7-1c-0.2-0.4-24.2-41.4-51.1-41.4c-26.9,0-50.9,41-51.1,41.4      c-0.5,0.9-1.7,1.4-2.7,1c-29.2-9.3-48.4-9.4-55.6-0.3c-11.8,15,9.4,50.4,9.6,50.7c0.5,0.9,0.4,2-0.3,2.8      C423.3,691.9,423.3,734.9,423.6,745z" />
			</g>
			<g>
				<path fill="#EEF1EE" d="M674.8,730c-0.9-11.3-2.7-18.6-2.7-18.6l-24.3,19.7l-33.6-24.9L587.5,734l-19.2-21.1l-11.3,19.4      L544,720.1l-13.1,12.2l-11.3-19.4L500.5,734l-26.7-27.8l-33.6,24.9l-24.3-19.7c0,0-1.8,7.3-2.7,18.6c-0.2,3.2-0.5,6.8-0.5,10.6      c-0.1,8.2,0.5,17.7,2.4,27.5c0.7,3.5,1.5,7.1,2.6,10.7c4.4,15.2,12.3,30.6,26,43.5c3.9,3.7,8.2,7.2,13.1,10.4      c4,2.6,8.4,5.1,13.1,7.4c4,1.9,8.3,3.8,13,5.4c16.4,5.7,36.5,9.2,61.2,9.6h0c24.6-0.4,44.7-3.9,61.2-9.6c4.6-1.6,8.9-3.4,13-5.4      c4.8-2.3,9.1-4.7,13.1-7.4c4.9-3.2,9.2-6.7,13.1-10.4c13.7-13,21.6-28.4,26-43.5c1-3.6,1.9-7.2,2.6-10.7      c1.9-9.8,2.4-19.2,2.4-27.5C675.3,736.8,675.1,733.3,674.8,730z" />
				<path fill="#3C2415" d="M544.1,857.4c-23.6-0.4-44.4-3.6-62-9.7c-4.5-1.5-8.9-3.4-13.2-5.5c-4.7-2.2-9.1-4.7-13.4-7.5      c-4.8-3.2-9.4-6.8-13.4-10.6c-12.6-11.9-21.5-26.9-26.6-44.6c-1.1-3.8-2-7.5-2.6-11c-1.7-8.8-2.5-18.1-2.4-27.9      c0-4.3,0.3-8.2,0.5-10.8c0.9-11.4,2.7-18.7,2.8-19c0.2-0.8,0.8-1.4,1.5-1.6c0.8-0.3,1.6-0.1,2.2,0.4l22.9,18.6l32.1-23.8      c0.9-0.7,2.2-0.6,3,0.3l24.9,26l17.5-19.3c0.5-0.5,1.2-0.8,2-0.7c0.7,0.1,1.4,0.5,1.8,1.1l9.8,16.9l11-10.2      c0.9-0.8,2.3-0.8,3.2,0l11,10.2l9.8-16.9c0.4-0.6,1-1.1,1.8-1.1c0.7-0.1,1.5,0.2,2,0.7l17.5,19.3l24.9-26c0.8-0.8,2.1-1,3-0.3      l32.1,23.8l22.9-18.6c0.6-0.5,1.4-0.6,2.2-0.4c0.7,0.3,1.3,0.9,1.5,1.6c0.1,0.3,1.9,7.6,2.8,19c0,0,0,0,0,0      c0.2,2.6,0.5,6.5,0.5,10.8c0.1,9.8-0.7,19.2-2.4,27.9c-0.6,3.5-1.5,7.2-2.6,10.9c-5.1,17.7-14.1,32.7-26.6,44.6      c-4.1,3.9-8.6,7.4-13.4,10.6c-4.3,2.8-8.7,5.3-13.4,7.5c-4.3,2.1-8.7,3.9-13.2,5.5C588.4,853.8,567.6,857.1,544.1,857.4z       M417.4,715.6c-0.6,3.2-1.4,8.3-1.9,14.6c-0.2,2.5-0.4,6.3-0.5,10.5c-0.1,9.5,0.7,18.5,2.3,27c0.6,3.3,1.5,6.9,2.5,10.5      c4.9,16.9,13.4,31.2,25.4,42.5c3.9,3.7,8.2,7.1,12.8,10.1c4.1,2.7,8.3,5.1,12.9,7.2c4.1,2,8.4,3.8,12.7,5.3      c17.1,5.9,37.4,9.1,60.4,9.5c23-0.4,43.3-3.5,60.4-9.5c4.3-1.5,8.6-3.3,12.7-5.3c4.5-2.2,8.7-4.5,12.9-7.2      c4.6-3.1,8.9-6.5,12.8-10.1c12-11.3,20.5-25.6,25.4-42.5c1.1-3.6,1.9-7.2,2.5-10.5c1.6-8.5,2.4-17.6,2.3-27      c0-4.2-0.3-8-0.5-10.5c-0.5-6.3-1.3-11.4-1.9-14.6l-21.4,17.3c-0.8,0.7-2,0.7-2.8,0.1l-31.9-23.7l-25.3,26.3      c-0.4,0.5-1.1,0.7-1.7,0.7c-0.6,0-1.2-0.3-1.7-0.8l-17.1-18.8l-9.7,16.7c-0.4,0.6-1,1-1.7,1.1c-0.7,0.1-1.4-0.1-1.9-0.6      L544,723.3L532.5,734c-0.5,0.5-1.2,0.7-1.9,0.6c-0.7-0.1-1.3-0.5-1.7-1.1l-9.7-16.7l-17.1,18.8c-0.4,0.5-1,0.7-1.7,0.8      c-0.6,0-1.3-0.2-1.7-0.7l-25.3-26.3L441.6,733c-0.8,0.6-2,0.6-2.8-0.1L417.4,715.6z" />
			</g>
			<circle fill="#3C2415" cx="495" cy="669.4" r="12.4" />
			<ellipse fill="#EF4136" cx="469.2" cy="687.2" rx="13.4" ry="6.3" />
			<path fill="#3C2415" d="M535.6,679.3c-1.3,0-2.6-0.3-3.8-0.8c-5.3-2.2-6.6-8.4-6.6-8.7c-0.3-1.3,0.6-2.5,1.8-2.7     c1.2-0.2,2.5,0.5,2.7,1.8c0,0.1,1,4.2,3.9,5.4c2.8,1.2,6.5-0.6,9.1-2.3c1.1-0.7,2.5-0.4,3.2,0.7c0.7,1.1,0.4,2.5-0.7,3.2     C541.7,678.1,538.5,679.3,535.6,679.3z" />
			<g>
				<path fill="#FFEBA8" d="M467.1,838.8c-12,11.6-34.4,36.9,29.7,10.8C485.5,846.9,475.6,843.2,467.1,838.8z" />
				<path fill="#3C2415" d="M458.7,863.4c-4.1,0-5.8-1.2-6.8-2.8c-1.8-2.7-2.3-8.1,13.7-23.4c0.7-0.7,1.8-0.8,2.7-0.4      c8.7,4.4,18.5,8,29.2,10.6c1,0.2,1.7,1.1,1.8,2.1c0.1,1-0.5,1.9-1.4,2.3C476.1,860.6,464.8,863.4,458.7,863.4z M467.5,841.6      c-11.2,11-12.3,15.7-11.8,16.4c0.1,0.2,3,3.9,33.8-8C481.6,847.8,474.2,844.9,467.5,841.6z" />
			</g>
			<g>
				<path fill="#F9A86D" d="M438.2,751.8c-1.2,4.6-5.9,18.6-20.6,27.1c-1-3.6-1.9-7.2-2.6-10.7c8.6-6.2,11.9-14.6,13-18.8      c-2.9-4.5-10-7.3-15.4-8.7c0-3.8,0.2-7.4,0.5-10.6c6.6,1.4,19,5.3,24.2,14.6C438.6,746.7,438.9,749.3,438.2,751.8z" />
				<path fill="#3C2415" d="M417.6,781.2c-0.3,0-0.6-0.1-0.9-0.2c-0.7-0.3-1.2-0.8-1.4-1.5c-1.1-3.8-2-7.5-2.6-11      c-0.2-0.9,0.2-1.8,0.9-2.3c7.3-5.2,10.5-12.2,11.8-16.5c-2.3-2.8-7.2-5.3-13.4-6.9c-1-0.3-1.8-1.2-1.7-2.3      c0-3.3,0.2-6.7,0.5-10.8c0.1-0.7,0.4-1.3,0.9-1.7c0.5-0.4,1.2-0.5,1.9-0.4c7.2,1.5,20.1,5.6,25.7,15.7c1.5,2.6,1.8,5.7,1.1,8.8      c0,0,0,0,0,0c-1.5,5.6-6.6,19.7-21.6,28.5C418.5,781.1,418.1,781.2,417.6,781.2z M417.6,769.1c0.4,2,0.9,4,1.4,6.1      c11.6-7.9,15.7-19.3,16.9-24.1c0.5-1.9,0.3-3.9-0.6-5.4c-4.2-7.6-14.1-11.3-20.1-12.9c-0.1,2.1-0.2,4.1-0.3,6      c4.8,1.4,11.8,4.2,15,9.2c0.4,0.6,0.5,1.2,0.3,1.9C429.1,754.4,425.8,762.7,417.6,769.1z M438.2,751.8L438.2,751.8L438.2,751.8z      " />
			</g>
			<g>
				<path fill="#FFEBA8" d="M465.6,783.9c-4,1.8-8.7,1.9-12.8,0.1c-4.1-1.8-7.9-5.7-3.9-13.9c0,0,8.5-15.6,16.4-5.8      C466,765.2,477.5,778.5,465.6,783.9z" />
				<path fill="#3C2415" d="M459.1,787.6c-2.5,0-4.9-0.5-7.2-1.5c-3.2-1.5-5.4-3.6-6.3-6.3c-1.1-3-0.7-6.6,1.3-10.7      c0.6-1.1,5.5-9.8,12.2-10.3c2.1-0.2,5.2,0.4,8.1,4.1c2.9,3.5,7.3,10.1,5.9,16c-0.7,3.1-2.9,5.5-6.4,7.1      C464.2,787.1,461.6,787.6,459.1,787.6z M459.7,763.4c-0.1,0-0.2,0-0.3,0c-3.5,0.3-7.4,5.9-8.4,7.8c-1.3,2.8-1.7,5.2-1,7      c0.5,1.5,1.9,2.7,3.9,3.7c3.3,1.5,7.4,1.5,10.8-0.1l0,0c2.2-1,3.4-2.3,3.8-4c0.7-2.9-1.2-7.3-4.9-11.9      C461.8,763.6,460.4,763.4,459.7,763.4z" />
			</g>
			<g>
				<path fill="#F9A86D" d="M488.5,823.4l-5.7,22.1c-4.6-1.6-8.9-3.4-13-5.4l5.2-20.2c0.1-0.6-0.2-1.1-0.7-1.3l-14.9-4.1      c-0.3-0.1-0.6,0-0.9,0.1c-0.2,0.2-0.4,0.5-0.4,0.8l-1.4,17.3c-4.9-3.2-9.2-6.7-13.1-10.4l0.7-8c0.4-4.4,2.7-8.4,6.3-11      c3.7-2.5,8.2-3.3,12.5-2.2l14.9,4.1C485.9,807.4,490.5,815.6,488.5,823.4z" />
				<path fill="#3C2415" d="M482.9,847.8c-0.3,0-0.5,0-0.8-0.1c-4.5-1.6-8.9-3.4-13.2-5.5c-1-0.5-1.5-1.6-1.2-2.7l4.9-19l-12.2-3.3      l-1.3,15.7c-0.1,0.8-0.6,1.5-1.3,1.9c-0.7,0.4-1.6,0.3-2.3-0.2c-4.8-3.2-9.3-6.8-13.4-10.6c-0.5-0.5-0.8-1.2-0.7-1.9l0.7-8      c0.4-5.1,3.1-9.8,7.3-12.7c4.2-2.9,9.5-3.9,14.5-2.5l14.9,4.1c9,2.5,14.5,11.9,12.1,21l-5.7,22.1c-0.2,0.6-0.6,1.2-1.1,1.5      C483.6,847.7,483.2,847.8,482.9,847.8z M472.6,838.9c2.8,1.3,5.7,2.5,8.6,3.6l5-19.7c0,0,0,0,0,0c1.7-6.6-2.3-13.5-8.9-15.3      l-14.9-4.1c-3.6-1-7.5-0.3-10.6,1.8c-3.1,2.2-5,5.6-5.3,9.3l-0.6,6.9c2.7,2.5,5.7,4.9,8.7,7.1l1.1-13.3c0.1-1,0.6-1.9,1.4-2.5      c1.2-0.8,2.3-0.7,2.9-0.4l14.8,4c1.7,0.5,2.8,2.3,2.4,4L472.6,838.9z M473.7,820.9C473.7,820.9,473.7,820.9,473.7,820.9      L473.7,820.9z M458.9,816.8C458.9,816.9,458.9,816.9,458.9,816.8L458.9,816.8z" />
			</g>
			<circle fill="#3C2415" cx="593" cy="669.4" r="12.4" />
			<ellipse fill="#EF4136" cx="618.9" cy="687.2" rx="13.4" ry="6.3" />
			<path fill="#3C2415" d="M552.4,679.3c-2.9,0-6.1-1.1-9.6-3.4c-1.1-0.7-1.4-2.1-0.7-3.2c0.7-1.1,2.1-1.4,3.2-0.7     c2.6,1.7,6.3,3.5,9.1,2.3c3-1.3,3.9-5.4,3.9-5.4c0.3-1.2,1.5-2,2.7-1.8c1.2,0.3,2,1.5,1.8,2.7c-0.1,0.3-1.4,6.5-6.6,8.7     C555,679,553.8,679.3,552.4,679.3z" />
			<g>
				<path fill="#FFE19B" d="M553.8,677.1c-6.1,0.5-9.7-3.1-9.8-3.2v0l0,0l0,0v0c0,0-3.7,3.7-9.8,3.2c0,0-6.7,17.4,9.8,15.4      C560.5,694.5,553.8,677.1,553.8,677.1z" />
				<path fill="#3C2415" d="M541.5,694.9c-4,0-6.9-1.2-8.8-3.6c-4.2-5.3-1-14.1-0.6-15c0.4-1,1.3-1.6,2.4-1.5      c4.6,0.4,7.6-2.1,7.9-2.5c0.2-0.2,0.5-0.4,0.8-0.5c0.9-0.4,1.9-0.2,2.5,0.5c0,0,3.1,2.9,8,2.5c1-0.1,2,0.5,2.4,1.5      c0.4,1,3.5,9.7-0.6,15c-2.3,2.9-6.1,4.1-11.3,3.5C543.1,694.9,542.3,694.9,541.5,694.9z M544,690.1c0.1,0,0.2,0,0.3,0      c3.7,0.5,6.1-0.1,7.4-1.7c1.8-2.2,1.1-6.4,0.4-9c-3.7-0.1-6.5-1.5-8.1-2.6c-1.6,1.1-4.4,2.5-8.1,2.6c-0.7,2.6-1.3,6.8,0.4,9      c1.2,1.6,3.7,2.2,7.4,1.7C543.8,690.1,543.9,690.1,544,690.1z" />
			</g>
			<g>
				<path fill="#FFEBA8" d="M621,838.8c12,11.6,34.4,36.9-29.7,10.8C602.6,846.9,612.4,843.2,621,838.8z" />
				<path fill="#3C2415" d="M629.4,863.4c-6.1,0-17.4-2.8-39-11.6c-0.9-0.4-1.5-1.3-1.4-2.3c0.1-1,0.8-1.8,1.8-2.1      c10.7-2.6,20.5-6.2,29.2-10.6c0.9-0.5,2-0.3,2.7,0.4c15.9,15.4,15.4,20.7,13.7,23.4C635.2,862.1,633.4,863.4,629.4,863.4z       M598.6,850.1c30.7,11.9,33.6,8.2,33.8,8c0.5-0.8-0.7-5.4-11.8-16.4C613.8,844.9,606.5,847.8,598.6,850.1z" />
			</g>
			<g>
				<path fill="#F9A86D" d="M649.8,751.8c1.2,4.6,5.9,18.6,20.6,27.1c1-3.6,1.9-7.2,2.6-10.7c-8.6-6.2-11.9-14.6-13-18.8      c2.9-4.5,10-7.3,15.4-8.7c0-3.8-0.2-7.4-0.5-10.6c-6.6,1.4-19,5.3-24.2,14.6C649.5,746.7,649.2,749.3,649.8,751.8z" />
				<path fill="#3C2415" d="M670.4,781.2c-0.4,0-0.8-0.1-1.2-0.3c-15-8.8-20.2-22.9-21.7-28.5c0,0,0,0,0,0c-0.8-3.1-0.4-6.2,1.1-8.8      c5.6-10.1,18.5-14.2,25.7-15.7c0.6-0.1,1.3,0,1.9,0.4c0.5,0.4,0.9,1,0.9,1.7c0.2,2.6,0.5,6.5,0.5,10.8c0,1.1-0.7,2-1.7,2.3      c-6.2,1.6-11.1,4.1-13.4,6.9c1.3,4.3,4.5,11.3,11.8,16.5c0.7,0.5,1.1,1.4,0.9,2.3c-0.7,3.5-1.5,7.2-2.6,11      c-0.2,0.7-0.7,1.2-1.4,1.5C671,781.1,670.7,781.2,670.4,781.2z M652.1,751.2c1.3,4.8,5.4,16.1,16.9,24.1c0.5-2.1,1-4.1,1.4-6.1      c-8.2-6.4-11.4-14.7-12.7-19.2c-0.2-0.6-0.1-1.3,0.3-1.9c3.2-5,10.1-7.8,15-9.2c-0.1-2.2-0.2-4.2-0.3-6      c-6,1.6-15.8,5.3-20.1,12.8C651.8,747.3,651.6,749.2,652.1,751.2z" />
			</g>
			<g>
				<path fill="#FFEBA8" d="M622.4,783.9c4,1.8,8.7,1.9,12.8,0.1c4.1-1.8,7.9-5.7,3.9-13.9c0,0-8.5-15.6-16.4-5.8      C622,765.2,610.6,778.5,622.4,783.9z" />
				<path fill="#3C2415" d="M628.9,787.6c-2.6,0-5.1-0.5-7.5-1.6l0,0c-3.5-1.6-5.7-4-6.4-7.1c-1.4-5.9,3-12.5,5.8-15.9      c3-3.8,6.1-4.4,8.2-4.2c6.6,0.6,11.6,9.2,12.1,10.2c2,4.2,2.4,7.8,1.3,10.8c-1,2.7-3.1,4.8-6.3,6.3      C633.9,787.1,631.4,787.6,628.9,787.6z M623.4,781.8c3.5,1.6,7.5,1.6,10.8,0.1c2-0.9,3.4-2.2,3.9-3.7c0.7-1.8,0.3-4.2-1.1-7.1      c-1-1.8-4.8-7.4-8.4-7.7c-0.5,0-2.1-0.2-4.1,2.4c-3.9,4.7-5.7,9.2-5,12.1C619.9,779.5,621.2,780.8,623.4,781.8L623.4,781.8z" />
			</g>
			<g>
				<path fill="#F9A86D" d="M599.5,823.4l5.7,22.1c4.6-1.6,8.9-3.4,13-5.4l-5.2-20.2c-0.1-0.6,0.2-1.1,0.7-1.3l14.9-4.1      c0.3-0.1,0.6,0,0.9,0.1c0.2,0.2,0.4,0.5,0.4,0.8l1.4,17.3c4.9-3.2,9.2-6.7,13.1-10.4l-0.7-8c-0.4-4.4-2.7-8.4-6.3-11      c-3.7-2.5-8.2-3.3-12.5-2.2l-14.9,4.1C602.2,807.4,597.5,815.6,599.5,823.4z" />
				<path fill="#3C2415" d="M605.2,847.8c-0.4,0-0.8-0.1-1.1-0.3c-0.6-0.3-1-0.8-1.1-1.5l-5.7-22.1v0c-2.3-9.1,3.1-18.5,12.1-21      l14.9-4.1c4.9-1.4,10.2-0.5,14.4,2.5c4.2,3,6.9,7.6,7.3,12.7l0.7,8c0.1,0.7-0.2,1.4-0.7,1.9c-4.1,3.9-8.6,7.4-13.4,10.6      c-0.7,0.5-1.5,0.5-2.3,0.2c-0.7-0.4-1.2-1.1-1.3-1.9l-1.3-15.7l-12.2,3.3l4.9,19c0.3,1.1-0.2,2.2-1.2,2.7      c-4.3,2.1-8.7,3.9-13.2,5.5C605.7,847.8,605.4,847.8,605.2,847.8z M628.9,803c-1.1,0-2.2,0.1-3.4,0.5l-14.9,4.1      c-6.6,1.8-10.6,8.7-8.9,15.3c0,0,0,0,0,0l5,19.7c2.9-1.1,5.8-2.3,8.6-3.6l-4.7-18.4c-0.4-1.8,0.6-3.6,2.4-4.1l14.9-4.1      c0.5-0.2,1.6-0.3,2.7,0.4c0.9,0.6,1.4,1.5,1.5,2.5l1.1,13.4c3.1-2.2,6-4.6,8.7-7.1l-0.6-6.9c-0.3-3.7-2.3-7.1-5.4-9.3      C633.9,803.7,631.4,803,628.9,803z M614.3,820.9L614.3,820.9C614.3,820.9,614.3,820.9,614.3,820.9z M629.3,816.8l-0.1,0      C629.2,816.8,629.3,816.8,629.3,816.8z" />
			</g>
			<g>
				<path fill="#AADEE9" d="M520.6,809.8c-3.7,0-7.2-1.8-9.4-4.9c-2.3-3.2-2.7-7.3-1.3-10.9l10.9-27.3c1.4-3.4,4.3-5.9,7.8-6.8      c3.5-0.9,7.3,0,10.1,2.4l30.4,25.7c3.6,3.1,5,7.9,3.4,12.4c-1.5,4.5-5.6,7.5-10.3,7.7l-41.3,1.7      C520.9,809.8,520.8,809.8,520.6,809.8z M532.5,775.2l-8.3,20.6l31.2-1.3L532.5,775.2z" />
				<path fill="#3C2415" d="M520.6,812.2c-4.5,0-8.7-2.2-11.3-5.8c-2.7-3.8-3.3-8.8-1.5-13.1l10.9-27.3c1.6-4.1,5.2-7.1,9.4-8.2      c4.3-1.1,8.8,0,12.2,2.8l30.4,25.7c4.4,3.7,6,9.5,4.1,14.9c-1.8,5.4-6.7,9-12.4,9.3L520.6,812.2z M531.4,761.9      c-0.7,0-1.5,0.1-2.2,0.3c-2.8,0.7-5.2,2.7-6.2,5.4l-10.9,27.3c-1.2,2.9-0.8,6.2,1,8.7c1.7,2.4,4.5,3.9,7.5,3.9l0.4,0l41.2-1.7      c3.8-0.2,7-2.6,8.2-6.1c1.2-3.6,0.1-7.5-2.7-9.9l-30.4-25.7C535.7,762.7,533.6,761.9,531.4,761.9z M524.2,798.1      c-0.7,0-1.5-0.4-1.9-1c-0.5-0.6-0.6-1.5-0.3-2.2l8.3-20.6c0.3-0.7,0.9-1.2,1.6-1.4s1.5,0,2,0.5l22.9,19.3c0.7,0.6,1,1.6,0.7,2.5      c-0.3,0.9-1.1,1.5-2.1,1.6L524.2,798.1C524.3,798.1,524.2,798.1,524.2,798.1z M533.4,779l-5.7,14.3l21.7-0.9L533.4,779z" />
			</g>
		</g>
		
  </g>
</svg>
