<?xml version="1.0" encoding="utf-8"?>
<svg xmlns="http://www.w3.org/2000/svg" xmlns:xlink="http://www.w3.org/1999/xlink"
     width="317" height="344" viewBox="1052 140 317 344">
  <g>
    <path xmlns="http://www.w3.org/2000/svg" fill="#E8E6D2" d="M1352.1,234.1c-0.8-2.7-2.4-4.7-4.8-5.9c-5.2-2.6-12.5-0.6-14.8,0.2l-8-1.8c-3.6-12.7-10.9-28.2-25.5-41.7    c-20.6-19-50.5-29.1-89.1-30.2c-38.5,1-68.4,11.2-89,30.2c-14.6,13.4-21.9,29-25.5,41.7l-8,1.8c-2.3-0.8-9.6-2.9-14.8-0.2    c-2.4,1.2-4,3.2-4.8,5.8c-1.2,3.8-1.3,11.8,7.3,15.1c0.1,0,1.2,0.4,2.8,0.4c2.7,0,6.9-0.9,10.6-5.6l3.8-1.4    c-1.1,10.1-0.2,19.3,2.7,27.6c0.4,1,0.7,2,1.1,3c-2.2,6.5-14.2,46.7,15.9,66.7c-9.7,27.1-9.2,50.8,1.6,68.5    c4,6.6,9.9,12.5,17.1,17.1l-10,13.5c-1.6,2.1-2.7,4.2-3.5,6.3c-2,5.5-0.6,8.4,0.9,9.9c2.7,2.7,7.6,2.9,15.4,0.4    c1.1,3.7,3.7,10,9.1,11.4c3.9,1,8.2-0.8,12.8-5.5c2.3,3.2,6.4,7.9,10.8,7.9c0.5,0,1-0.1,1.6-0.2c5.5-1.4,8.3-10.2,8.8-27.3    c9.7,1.7,20.8,2.9,33.3,2.9c12.5,0,23.6-1.1,33.3-2.9c0.5,17.2,3.4,25.9,8.8,27.3c0.5,0.1,1,0.2,1.6,0.2c4.4,0,8.5-4.7,10.8-7.9    c4.6,4.7,8.9,6.5,12.8,5.5c5.4-1.4,8-7.8,9.1-11.4c7.8,2.4,12.7,2.3,15.4-0.4c1.5-1.5,2.8-4.4,0.8-9.9c-0.8-2.1-1.9-4.2-3.5-6.3    l-10-13.5c7.2-4.6,13.1-10.5,17.1-17.1c10.8-17.7,11.4-41.4,1.6-68.5c30.1-20,18.1-60.2,15.9-66.7c0.4-1,0.8-2,1.1-3    c2.8-8.2,3.7-17.5,2.7-27.6l3.8,1.4c3.7,4.7,7.9,5.6,10.6,5.6c1.7,0,2.8-0.3,2.9-0.4C1353.5,245.8,1353.4,237.8,1352.1,234.1z" />
	
    <g xmlns="http://www.w3.org/2000/svg">
			<g>
				<path fill="#FFE572" d="M1318.5,229.7c-5.4-28.1-28-76.1-114.3-78.4c-86.3,2.3-109,50.3-114.3,78.4c-2.1,11.2-2.2,22.9,1.5,33.7      c18.8,54.5,112.8,45.8,112.8,45.8s94,8.7,112.8-45.8C1320.7,252.7,1320.6,241,1318.5,229.7z" />
				<path fill="#3C2415" d="M1218.4,312.1c-7.8,0-13-0.4-14.2-0.5c-2.6,0.2-24.9,2-49.8-2.5c-34.7-6.2-57.3-21.7-65.3-44.9      c-3.5-10.2-4-21.9-1.6-34.9c2.6-13.7,9.5-33.5,27.5-50.1c20.6-19,50.5-29.1,89-30.2c38.6,1,68.6,11.2,89.1,30.2      c18,16.6,24.9,36.4,27.5,50.1l0,0c2.5,13,2,24.7-1.6,34.9c-8,23.1-30.6,38.7-65.3,44.9C1240.4,311.5,1227.6,312.1,1218.4,312.1z       M1204.1,153.6c-85.1,2.3-106.7,48.9-112,76.5c-2.3,12.2-1.9,23.1,1.4,32.5c18,52.2,109.5,44.4,110.4,44.3c0.1,0,0.3,0,0.4,0      c0.9,0.1,92.4,7.9,110.4-44.3c3.3-9.4,3.7-20.4,1.4-32.5C1310.9,202.6,1289.4,155.9,1204.1,153.6z" />
			</g>
			<g>
				<path fill="#FFE572" d="M1281.7,298.6c-33.4,14.5-77.5,10.7-77.5,10.7s-44.1,3.8-77.5-10.7c0,0-42.6,60.5-16.8,102.6      c4.5,7.4,11,13.3,18.5,17.6c13.1,7.6,39.1,17.6,75.8,17.6s62.8-10,75.8-17.6c7.5-4.4,14-10.3,18.5-17.6      C1324.2,359.1,1281.7,298.6,1281.7,298.6z" />
				<path fill="#3C2415" d="M1204.2,438.8c-41.7,0-67.8-12.6-77-18c-8.2-4.8-14.9-11.2-19.3-18.4c-10.9-17.9-11.4-41.8-1.4-69.1      c7.4-20.4,17.9-35.4,18.3-36c0.6-0.9,1.8-1.2,2.8-0.8c32.5,14.1,76,10.5,76.4,10.5c0.1,0,0.3,0,0.4,0c0.4,0,43.9,3.6,76.4-10.5      c1-0.4,2.2-0.1,2.8,0.8c0.4,0.6,10.9,15.6,18.3,36c10,27.4,9.5,51.3-1.4,69.1c-4.4,7.3-11.1,13.7-19.3,18.4      C1271.9,426.3,1245.9,438.8,1204.2,438.8z M1127.5,301.5c-6.3,9.6-38.1,61.9-15.7,98.6c4,6.6,10.2,12.5,17.7,16.9      c8.9,5.2,34.1,17.3,74.7,17.3c40.6,0,65.7-12.1,74.7-17.3c7.5-4.4,13.7-10.2,17.7-16.9c22.4-36.7-9.4-89-15.7-98.6      c-32.5,13.4-73.1,10.4-76.7,10.1C1200.6,311.9,1160,314.8,1127.5,301.5z" />
			</g>
			<g>
				<path fill="#FFE19B" d="M1262.1,250.5c17.3-15.9-16.8-17.2-16.8-17.2c-8.9,0.5-13.7-4.5-13.7-4.5c-10.4-8.5-27.4-9.6-27.4-9.6      s-16.9,1.2-27.4,9.6c0,0-4.8,5-13.7,4.5c0,0-34.1,1.3-16.8,17.2c0,0-31,67,8.6,82.4c0,0,18.5,8.7,49.3,6c30.8,2.7,49.3-6,49.3-6      C1293,317.5,1262.1,250.5,1262.1,250.5z" />
				<path fill="#3C2415" d="M1216,341.8c-3.7,0-7.6-0.2-11.8-0.5c-31,2.7-49.5-5.9-50.3-6.3c-8.6-3.3-14.8-9.4-18.2-17.9      c-9.4-23.4,4.5-58.3,7.9-66c-3.9-4-5.2-7.6-4-10.9c2.9-8,20.1-9,23.5-9.1c7.9,0.4,12-3.6,12.2-3.8c11-9,28.1-10.3,28.8-10.3      c0.1,0,0.2,0,0.3,0c0.7,0,17.8,1.3,28.7,10.1c0.4,0.4,4.4,4.4,12.1,4c3.6,0.1,20.8,1.2,23.7,9.1c1.2,3.3-0.1,7-4,10.9      c3.3,7.8,17.3,42.6,7.9,66c-3.4,8.5-9.6,14.6-18.4,18C1253.8,335.3,1239.8,341.8,1216,341.8z M1204.2,336.6c0.1,0,0.1,0,0.2,0      c29.7,2.6,47.9-5.7,48.1-5.8c7.7-3,13-8.2,15.9-15.5c9.7-24.1-8.3-63.5-8.4-63.9c-0.4-0.9-0.2-2,0.5-2.7c3.2-2.9,4.6-5.4,4-7.1      c-1.4-3.8-12.2-5.8-19.4-6.1c-9.7,0.6-15.1-5-15.3-5.2c-9-7.3-24-8.8-25.7-8.9c-1.7,0.1-16.7,1.6-25.9,9.1c0,0-5.5,5.6-15.3,5      c-7,0.3-17.8,2.4-19.1,6.1c-0.6,1.6,0.8,4.1,4,7.1c0.7,0.7,1,1.8,0.5,2.7c-0.2,0.4-18.1,39.8-8.4,63.9      c2.9,7.3,8.3,12.5,15.8,15.4c0.3,0.1,18.5,8.5,48.3,5.9C1204,336.6,1204.1,336.6,1204.2,336.6z" />
			</g>
			
				<ellipse transform="matrix(0.5514 -0.8342 0.8342 0.5514 333.5062 1096.9208)" fill="#3C2415" cx="1186.7" cy="238.3" rx="5.1" ry="2.6" />
			<g>
				<path fill="#EEF1EE" d="M1166,205.8c-2.3-10.1-16.3-15.5-31.3-12.1c-15,3.4-25.4,14.3-23.1,24.3c0,0.1,0.1,0.2,0.1,0.3      l-30.4,6.7c0,0-14.6-5.5-17.3,3.9c0,0-2.9,8.9,5.8,12.1c0,0,6.1,2,11.3-5l33.3-12.6c5.3,6.3,16.5,9.2,28.4,6.5      C1158,226.7,1168.3,215.8,1166,205.8z" />
				<path fill="#3C2415" d="M1072,243.7c-1.6,0-2.7-0.3-2.8-0.4c-8.6-3.2-8.5-11.3-7.3-15.1c0.7-2.6,2.4-4.6,4.8-5.8      c5.2-2.6,12.5-0.6,14.8,0.2l27.6-6.1c-0.9-10.7,9.8-21.7,25.2-25.1c7.7-1.7,15.4-1.3,21.8,1.1c6.6,2.6,11,7.1,12.3,12.8l0,0      c1.3,5.6-0.7,11.6-5.7,16.8c-4.7,4.9-11.5,8.6-19.2,10.3c-11.7,2.6-23.3,0.2-29.6-6.1l-31.2,11.8      C1078.9,242.8,1074.7,243.7,1072,243.7z M1072.8,225.7c-1.5,0-2.9,0.2-4,0.8c-1.2,0.6-2,1.6-2.4,3.1c-0.2,0.8-2,6.9,4.4,9.3      c0.1,0,4.6,1.3,8.7-4.2c0.3-0.4,0.6-0.6,1-0.8l33.3-12.6c0.9-0.3,2-0.1,2.6,0.7c4.9,5.9,15.4,8.2,26.2,5.8      c6.8-1.5,12.8-4.7,16.9-9c3.8-4,5.4-8.5,4.5-12.6l0,0c-0.9-4.1-4.3-7.5-9.4-9.5c-5.5-2.1-12.3-2.5-19.1-0.9      c-13.7,3.1-23.3,12.8-21.3,21.6l0.1,0.3c0.2,0.6,0.1,1.3-0.3,1.8c-0.3,0.5-0.9,0.9-1.5,1.1l-30.4,6.7c-0.4,0.1-0.9,0.1-1.3-0.1      C1079.2,226.7,1075.9,225.7,1072.8,225.7z" />
			</g>
			<circle fill="#3C2415" cx="1147.9" cy="209.3" r="3.2" />
			<g>
				<path fill="#FFE572" d="M1092.8,267.1c0,0-17.3,45.3,16.2,65.8c0,0,10.2-25.5,17.6-34.4C1126.6,298.6,1104.6,292.3,1092.8,267.1      z" />
				<path fill="#3C2415" d="M1109,335.3c-0.4,0-0.8-0.1-1.2-0.3c-34.8-21.3-17.4-68.1-17.2-68.6c0.3-0.9,1.1-1.5,2.1-1.5      c0.9-0.1,1.8,0.5,2.2,1.3c11.2,23.8,32.2,30.2,32.4,30.2c0.8,0.2,1.3,0.8,1.6,1.5c0.2,0.7,0.1,1.6-0.4,2.2      c-7.1,8.5-17.2,33.5-17.3,33.7c-0.3,0.6-0.8,1.1-1.4,1.3C1109.5,335.2,1109.2,335.3,1109,335.3z M1093.3,273.2      c-1.2,4.5-2.6,11.5-2.7,19.3c-0.1,16.5,5.7,28.9,17.3,37c2.5-6.1,9.2-21.4,15-29.8C1116.8,297.2,1103,290,1093.3,273.2z" />
			</g>
			<g>
				<path fill="#D7B07F" d="M1128.3,418.9l-11.5,15.5c-1.3,1.8-2.4,3.7-3.2,5.7c-1.9,5.2-2.3,12.8,15.7,6.6c0,0,4.5,24,20.5,5.1      c0,0,17.8,30.5,18.7-18.4C1168.6,433.4,1145.7,429.9,1128.3,418.9z" />
				<path fill="#3C2415" d="M1160.5,463.5c-4.4,0-8.5-4.7-10.8-7.9c-4.6,4.7-8.9,6.5-12.8,5.5c-5.4-1.4-8-7.8-9.1-11.4      c-7.8,2.4-12.7,2.3-15.4-0.4c-1.5-1.5-2.8-4.4-0.9-9.9c0.8-2.1,1.9-4.2,3.5-6.3l11.5-15.5c0.7-1,2.1-1.2,3.1-0.6      c16.8,10.6,39.2,14.2,39.4,14.2c1.1,0.2,2,1.2,2,2.3c-0.3,18.9-3.2,28.4-8.9,29.9C1161.5,463.5,1161,463.5,1160.5,463.5z       M1150,449.5c0.1,0,0.1,0,0.2,0c0.7,0.1,1.4,0.5,1.8,1.1c2.2,3.8,6.6,8.8,8.9,8.2c0.8-0.2,4.8-2.4,5.4-23.5      c-5.8-1.1-22.9-4.8-37.4-13.4l-10.2,13.8c-1.3,1.8-2.2,3.5-2.8,5.1c-0.9,2.4-1,4.3-0.2,5.1c0.5,0.5,3,2,13-1.5      c0.6-0.2,1.3-0.2,1.9,0.2c0.6,0.3,1,0.9,1.1,1.6c0.5,2.4,2.6,9.4,6.4,10.4c2.6,0.7,6.1-1.5,10.2-6.3      C1148.6,449.8,1149.3,449.5,1150,449.5z" />
			</g>
			
				<ellipse transform="matrix(0.8342 -0.5514 0.5514 0.8342 71.0836 713.1277)" fill="#3C2415" cx="1221.6" cy="238.3" rx="2.6" ry="5.1" />
			<g>
				<path fill="#EEF1EE" d="M1242.3,205.8c2.3-10.1,16.3-15.5,31.3-12.1c15,3.4,25.4,14.3,23.1,24.3c0,0.1-0.1,0.2-0.1,0.3l30.4,6.7      c0,0,14.6-5.5,17.3,3.9c0,0,2.9,8.9-5.8,12.1c0,0-6.1,2-11.3-5l-33.3-12.6c-5.3,6.3-16.5,9.2-28.4,6.5      C1250.4,226.7,1240,215.8,1242.3,205.8z" />
				<path fill="#3C2415" d="M1336.3,243.7c-2.7,0-6.9-0.9-10.6-5.6l-31.2-11.8c-6.3,6.2-17.9,8.7-29.6,6.1      c-16.2-3.6-27.4-15.8-24.8-27.1l0,0c2.5-11.3,17.8-17.5,34-13.9c7.7,1.7,14.5,5.4,19.2,10.3c4.3,4.6,6.4,9.8,6,14.8l27.6,6.1      c2.3-0.8,9.6-2.9,14.8-0.2c2.4,1.2,4,3.2,4.8,5.9c1.2,3.7,1.3,11.7-7.2,14.9C1339.1,243.3,1337.9,243.7,1336.3,243.7z       M1293.8,221.3c0.3,0,0.6,0,0.8,0.1l33.3,12.6c0.4,0.2,0.8,0.4,1,0.8c4.2,5.5,8.7,4.2,8.8,4.1c6.2-2.4,4.5-8.5,4.3-9.2      c-0.4-1.5-1.2-2.5-2.4-3.1c-3.5-1.8-9.7-0.1-11.8,0.7c-0.4,0.2-0.9,0.2-1.3,0.1l-30.4-6.7c-0.6-0.1-1.1-0.5-1.5-1.1      c-0.3-0.5-0.4-1.2-0.3-1.8c0-0.1,0.1-0.2,0.1-0.3c0.9-4.1-0.7-8.5-4.5-12.5c-4-4.3-10-7.5-16.9-9c-13.7-3.1-26.5,1.6-28.5,10.4      l0,0c-2,8.8,7.6,18.5,21.3,21.6c10.8,2.4,21.3,0.1,26.2-5.8C1292.5,221.6,1293.1,221.3,1293.8,221.3z" />
			</g>
			<circle fill="#3C2415" cx="1260.4" cy="209.3" r="3.2" />
			<g>
				<path fill="#FFE572" d="M1315.6,267.1c0,0,17.3,45.3-16.2,65.8c0,0-10.2-25.5-17.6-34.4C1281.7,298.6,1303.7,292.3,1315.6,267.1      z" />
				<path fill="#3C2415" d="M1299.3,335.3c-0.2,0-0.5,0-0.7-0.1c-0.6-0.2-1.2-0.7-1.4-1.3c-0.1-0.3-10.2-25.3-17.3-33.7      c-0.5-0.6-0.7-1.4-0.4-2.2c0.2-0.7,0.8-1.3,1.6-1.5c0.2-0.1,21.2-6.4,32.4-30.2c0.4-0.8,1.3-1.4,2.2-1.3c0.9,0,1.7,0.6,2.1,1.5      c0.2,0.5,17.6,47.4-17.2,68.6C1300.2,335.1,1299.7,335.3,1299.3,335.3z M1285.4,299.7c5.8,8.4,12.4,23.7,15,29.8      c22.4-15.7,17.7-44.5,14.6-56.3C1305.3,290,1291.5,297.2,1285.4,299.7z" />
			</g>
			<g>
				<path fill="#D7B07F" d="M1280,418.9l11.5,15.5c1.3,1.8,2.4,3.7,3.2,5.7c1.9,5.2,2.3,12.8-15.7,6.6c0,0-4.5,24-20.5,5.1      c0,0-17.8,30.5-18.7-18.4C1239.7,433.4,1262.6,429.9,1280,418.9z" />
				<path fill="#3C2415" d="M1247.8,463.5c-0.5,0-1-0.1-1.6-0.2c-5.7-1.5-8.6-11-8.9-29.9c0-1.2,0.8-2.1,2-2.3      c0.2,0,22.7-3.6,39.4-14.2c1-0.7,2.4-0.4,3.1,0.6l11.5,15.5c1.6,2.1,2.7,4.2,3.5,6.3c2,5.5,0.6,8.4-0.8,9.9      c-2.7,2.7-7.6,2.9-15.4,0.4c-1.1,3.7-3.7,10-9.1,11.4c-3.9,1-8.2-0.8-12.8-5.5C1256.4,458.8,1252.3,463.5,1247.8,463.5z       M1242,435.3c0.6,21.1,4.6,23.3,5.4,23.5c2.3,0.6,6.7-4.4,8.9-8.2c0.4-0.6,1-1.1,1.8-1.1c0.8-0.1,1.5,0.2,2,0.8      c4.1,4.8,7.6,7,10.2,6.3c3.8-1,5.9-8,6.4-10.4c0.1-0.7,0.5-1.2,1.1-1.6c0.6-0.3,1.3-0.4,1.9-0.2c10,3.5,12.5,2,13,1.5      c0.7-0.7,0.7-2.6-0.2-5.1c-0.6-1.7-1.5-3.4-2.8-5.1l-10.2-13.8C1265,430.5,1247.8,434.3,1242,435.3z" />
			</g>
		</g>
	
  </g>
</svg>
