<?xml version="1.0" encoding="utf-8"?>
<svg xmlns="http://www.w3.org/2000/svg" xmlns:xlink="http://www.w3.org/1999/xlink"
     width="301" height="353" viewBox="736 531 301 353">
  <g>
    <path xmlns="http://www.w3.org/2000/svg" fill="#E8E6D2" d="M1008.4,727.9c-9.4-5.9-20.5-2.1-20.8-2c-14.2,3.8-15.9,20.3-14.8,28.3c0.4,13.1-2.3,22.6-8.2,28    c-4.2,3.8-9,4.7-11.8,4.9c-0.1-1.1-0.2-2.2-0.3-3.3c0.7,0.2,1.4,0.3,2.1,0.3c0.4,0,0.7,0,1.1-0.1c3.1-0.4,4.8-2.7,5-3l5.2-7.8    c2.1-3.5,2.7-6.8,1.8-9.8c-0.8-2.4-2.4-4-3.6-5c0.5-2.2,0.8-5.4-1.4-7.1c-2.6-2-6.8-0.2-9.3,1.2l-11.6-9.6    c-1.4-3.6-3-7.3-4.8-11.1c15.3-4.4,30.3-11.6,41-23.5c13.8-15.3,18.2-36.1,13.3-61.7c0.7-4.4,5-37.5-17.8-64.8    c-19.6-23.5-53.2-35.4-99.9-35.4c-0.1,0-0.3,0-0.4,0c-46.7,0-80.3,11.9-99.9,35.4c-22.8,27.3-18.5,60.4-17.8,64.8    c-5,25.6-0.5,46.3,13.3,61.7c10.7,11.9,25.7,19.1,41,23.5c-1.7,3.8-3.3,7.5-4.8,11.1l-11.6,9.6c-2.4-1.4-6.6-3.1-9.3-1.2    c-2.3,1.7-1.9,4.9-1.4,7.1c-1.3,1-2.9,2.6-3.6,5c-0.9,3-0.3,6.3,1.8,9.9l5.2,7.8c0.2,0.3,1.9,2.5,5,3c0.4,0,0.7,0.1,1.1,0.1    c0.7,0,1.4-0.1,2.1-0.3c-1.6,16.6,1.4,30.3,9,41c3.4,4.9,7.6,8.8,12.2,12c-0.9,3.3-2.1,10.6,2.4,17.6c-2.1,2.2-3.8,5.7-1.8,9.1    c0.8,1.8,4.1,5.7,17.7,5.7c2.5,0,5.4-0.1,8.6-0.4c2.6-0.2,4.8-1.8,6-4c1-1.9,1.1-4.1,0.3-6c0.6-1.6,1.7-5.1,2.3-9.4    c11.6,1.4,20.8,0.7,22.5,0.6c0.9,0.1,3.8,0.3,8,0.3c3.9,0,8.9-0.2,14.5-0.9c0.7,4.3,1.8,7.8,2.3,9.4c-0.8,1.9-0.7,4.1,0.3,6    c1.2,2.3,3.4,3.8,6,4c3.3,0.3,6.1,0.4,8.6,0.4c13.6,0,16.9-4,17.7-5.7c2-3.4,0.2-6.8-1.8-9.1c4.6-7,3.4-14.3,2.4-17.6    c2.3-1.6,4.6-3.5,6.7-5.6c32.9-4.2,44.7-41.6,47.7-54.2c8.2,5.8,19.4,2.7,19.9,2.5c14.9-4.7,16-21.3,14.4-29.3    C1018.9,739.5,1014.9,731.9,1008.4,727.9z" />
		
    <g xmlns="http://www.w3.org/2000/svg">
			<g>
				<path fill="#A5DFF6" d="M944.4,783.6c0,0,26.3,3.3,25-35.3c0,0-2.8-21.7,13.1-26c0,0,25.9-9,29.5,22.5c0,0,4.1,21.4-12.9,26.8      c0,0-13.4,3.9-20.6-4.8c0,0-9.2,56.1-51.9,56.6C926.7,823.5,942.3,813.1,944.4,783.6z" />
				<path fill="#3C2415" d="M926.7,825.8c-1,0-1.9-0.7-2.2-1.6c-0.3-1,0.1-2,0.9-2.6c0.1-0.1,14.7-10.2,16.7-38.2      c0-0.6,0.3-1.2,0.8-1.6c0.5-0.4,1.1-0.6,1.7-0.5l0,0c0.1,0,7.9,0.9,14.2-4.9c5.9-5.4,8.7-14.8,8.2-28c-1-8,0.7-24.5,14.8-28.3      c0.3-0.1,11.4-3.9,20.8,2c6.5,4.1,10.4,11.6,11.7,22.4c1.5,7.9,0.5,24.5-14.4,29.3c-0.6,0.2-11.7,3.3-19.9-2.5      C976.8,784.5,963.9,825.4,926.7,825.8C926.7,825.8,926.7,825.8,926.7,825.8z M946.5,786c-1.7,18.3-8.5,29.1-13.4,34.7      c34.7-5.8,43.1-53.6,43.2-54.1c0.1-0.9,0.8-1.6,1.7-1.9c0.9-0.2,1.8,0,2.4,0.7c6.2,7.3,18.1,4.1,18.2,4      c14.7-4.7,11.3-24,11.2-24.1c-1.1-9.5-4.3-15.9-9.6-19.2c-7.5-4.7-16.9-1.6-17-1.5c-14,3.8-11.6,23.3-11.6,23.5      c0.5,14.8-2.8,25.5-9.8,31.8C956.3,784.9,949.9,785.9,946.5,786z" />
			</g>
			<g>
				<path fill="#D7B07F" d="M928,724.4c-2.2,0.6-4.4,1.1-6.6,1.6c-27.6,5.9-53.8,3.5-53.8,3.5s-26.2,2.4-53.8-3.5      c-2.2-0.5-4.4-1-6.6-1.6c-60.4,129.2,60.4,117.3,60.4,117.3S988.4,853.6,928,724.4z" />
				<path fill="#3C2415" d="M875.6,844.3c-4.2,0-7.1-0.2-8-0.3c-4.1,0.4-49.8,3.8-70.2-25.1c-14.8-20.9-12.2-53,7.7-95.6      c0.5-1,1.6-1.5,2.7-1.3c2.1,0.6,4.3,1.1,6.5,1.5c27,5.7,52.9,3.5,53.1,3.5c0.1,0,0.3,0,0.4,0c0.3,0,26.2,2.3,53.1-3.5      c2.2-0.5,4.3-1,6.5-1.5c1.1-0.3,2.2,0.2,2.7,1.3c19.9,42.5,22.5,74.7,7.7,95.6C921.9,841.5,890.5,844.3,875.6,844.3z       M867.6,839.4c0.1,0,0.2,0,0.2,0c0.5,0,46.9,4.2,66.2-23.1c13.5-19.1,11.1-49.1-7.3-89.2c-1.6,0.4-3.2,0.8-4.8,1.1      c-26.7,5.7-51.6,3.8-54.3,3.6c-2.7,0.2-27.6,2.1-54.3-3.6c-1.6-0.3-3.2-0.7-4.8-1.1c-18.4,40-20.9,70-7.3,89.2      c19.4,27.4,65.8,23.2,66.2,23.1C867.4,839.4,867.5,839.4,867.6,839.4z" />
			</g>
			<g>
				<path fill="#F5EAB1" d="M921.4,726c-27.6,5.9-53.8,3.5-53.8,3.5s-26.2,2.4-53.8-3.5c-7.5,14.8-32.3,70.6-0.6,96.5      c0,0,19.3,15.7,54.5,13.1c35.2,2.6,54.5-13.1,54.5-13.1C953.7,796.6,928.8,740.7,921.4,726z" />
				<path fill="#3C2415" d="M859.6,837.4c-30.2,0-46.7-13.1-47.5-13.7c-14-11.4-19-29.5-14.9-53.8c3.3-19.6,11.7-37.7,15.1-44.5      c0.3-0.6,1-1,1.7-0.8c27.1,5.8,53.1,3.5,53.3,3.5c0.5,0,26.5,2.3,53.6-3.5c0.7-0.1,1.4,0.2,1.7,0.8c3.5,6.9,11.9,24.9,15.1,44.5      c4.1,24.3-0.9,42.4-14.9,53.8c-0.8,0.7-20.1,16-55.5,13.4C864.7,837.3,862.1,837.4,859.6,837.4z M814.6,727.7      c-6.6,13.4-31.1,68.6-0.5,93.5c0.2,0.2,19.3,15.2,53.4,12.8c34.3,2.5,53.4-12.6,53.6-12.8c30.6-25,6.1-80.1-0.5-93.5      c-27.1,5.6-52.8,3.3-53.1,3.3C867.4,731,841.7,733.3,814.6,727.7z" />
			</g>
			<g>
				<path fill="#A5DFF6" d="M983.1,640.9c0,0,17.7-98-115.6-97.8C734.3,542.9,752,640.9,752,640.9c-20,100.9,115.6,88.6,115.6,88.6      S1003.2,741.8,983.1,640.9z" />
				<path fill="#3C2415" d="M881.6,732.3c-7.6,0-12.8-0.4-14-0.5c-5.1,0.4-73.3,5.6-104.7-29.3c-13.8-15.3-18.2-36.1-13.3-61.7      c-0.7-4.4-5-37.5,17.8-64.8c19.6-23.5,53.2-35.4,99.9-35.4c0.1,0,0.3,0,0.4,0c46.7,0,80.3,11.9,99.9,35.4      c22.8,27.3,18.5,60.4,17.8,64.8c5,25.6,0.5,46.3-13.3,61.7C948.7,728.7,904.4,732.3,881.6,732.3z M867.6,727.2      c0.1,0,0.1,0,0.2,0c0.7,0.1,70.7,6,101-27.8c12.8-14.3,16.9-33.8,12.1-58.1c-0.1-0.3-0.1-0.6,0-0.9c0.1-0.3,5.9-34.5-16.7-61.5      c-18.7-22.3-51.1-33.7-96.3-33.7c-0.1,0-0.3,0-0.4,0c-45.3,0-77.7,11.3-96.4,33.7c-22.6,27-16.7,61.1-16.7,61.4      c0.1,0.3,0,0.6,0,0.9c-4.8,24.3-0.8,43.8,12.1,58.1c30.4,33.8,100.3,27.8,101,27.8C867.4,727.2,867.5,727.2,867.6,727.2z" />
			</g>
			<g>
				<path fill="#A5DFF6" d="M840.2,853c0,0,2.2-5.4,2.9-12.2c-9.9-1.4-21.2-4.5-30.8-10.8l0,0c0,0-4.3,10,2.8,18.9      c0,0-5.2,4-2.8,7.7c0,0,2.1,6.1,24.1,4c3.6-0.3,5.9-4.3,4-7.5L840.2,853z" />
				<path fill="#3C2415" d="M827.9,863.4c-13.6,0-16.9-4-17.7-5.7c-2-3.4-0.2-6.8,1.8-9.1c-6-9.3-2-19-1.8-19.5      c0.5-1.1,1.6-1.6,2.8-1.3c0.2,0.1,0.4,0.2,0.6,0.3c7.9,5.2,18,8.7,29.9,10.4c1.2,0.2,2.1,1.3,2,2.5c-0.6,5.4-2,9.9-2.7,11.8      c0.8,1.9,0.7,4.1-0.3,6c-1.2,2.3-3.4,3.8-6,4C833.2,863.2,830.4,863.4,827.9,863.4z M814.4,855.8c0,0,3.1,4.2,21.7,2.5      c1-0.1,1.8-0.7,2.3-1.6c0.2-0.4,0.6-1.4,0-2.4c-0.4-0.6-0.5-1.5-0.2-2.2c0,0,1.6-4.1,2.4-9.4c-10.3-1.7-19.3-4.8-26.9-9.2      c-0.6,3.2-0.9,8.7,3.2,13.9c0.4,0.5,0.6,1.1,0.5,1.7c-0.1,0.6-0.4,1.2-0.9,1.6c0,0-3.4,2.8-2.3,4.6      C814.3,855.5,814.4,855.7,814.4,855.8C814.4,855.8,814.4,855.8,814.4,855.8z" />
			</g>
			<g>
				<path fill="#A5DFF6" d="M801,738.5l-13.4,11c0,0-12.1-8-8.2,4.1c0,0-8,3.6-2.6,12.6l5.1,7.7c0,0,3.3,4.6,9.1,0      C791.1,773.9,792.6,758.8,801,738.5z" />
				<path fill="#3C2415" d="M786.2,778.3c-0.4,0-0.7,0-1.1-0.1c-3.1-0.4-4.8-2.7-5-3l-5.2-7.8c-2.2-3.6-2.8-6.9-1.8-9.9      c0.8-2.4,2.4-4,3.6-5c-0.5-2.2-0.8-5.4,1.4-7.1c2.6-2,6.8-0.2,9.3,1.2l12.1-9.9c0.8-0.7,2-0.7,2.8-0.1c0.9,0.6,1.2,1.8,0.8,2.7      c-8.2,19.7-9.7,34.6-9.7,34.7c-0.1,0.6-0.4,1.2-0.9,1.6C790.4,777.4,788.3,778.3,786.2,778.3z M784,772.6c0,0,0.7,0.9,1.9,1      c1,0.1,2.2-0.4,3.1-1c0.4-3.2,2-13.2,6.8-26.7l-6.6,5.4c-0.8,0.6-1.9,0.7-2.7,0.1c-2-1.3-4.6-2.4-5.5-2.2c0.1,0.1-0.1,1,0.7,3.7      c0.4,1.1-0.2,2.3-1.3,2.8c0,0-2.2,1.1-2.9,3.3c-0.5,1.7-0.1,3.7,1.3,6L784,772.6C784,772.6,784,772.6,784,772.6z" />
			</g>
			<circle fill="#3C2415" cx="806.3" cy="642" r="11.6" />
			<ellipse fill="#EF4136" cx="784.7" cy="663.1" rx="12.7" ry="5.8" />
			<path fill="#3C2415" d="M867.6,677.5c-0.6,0-1.3-0.3-1.7-0.8L850,658.8c-0.8-1-0.8-2.4,0.2-3.3c1-0.8,2.4-0.8,3.3,0.2l15.8,17.8     c0.8,1,0.8,2.4-0.2,3.3C868.7,677.3,868.1,677.5,867.6,677.5z" />
			<g>
				<path fill="#A5DFF6" d="M894.9,853c0,0-2.2-5.4-2.9-12.2c9.9-1.4,21.2-4.5,30.8-10.8l0,0c0,0,4.3,10-2.8,18.9c0,0,5.2,4,2.8,7.7      c0,0-2.1,6.1-24.1,4c-3.6-0.3-5.9-4.3-4-7.5L894.9,853z" />
				<path fill="#3C2415" d="M907.3,863.4c-2.5,0-5.4-0.1-8.6-0.4c-2.6-0.2-4.8-1.8-6-4c-1-1.9-1.1-4.1-0.3-6      c-0.7-1.9-2.1-6.4-2.7-11.8c-0.1-1.2,0.7-2.4,2-2.5c11.9-1.7,21.9-5.2,29.9-10.4c0.2-0.1,0.5-0.2,0.7-0.3      c1.1-0.3,2.2,0.3,2.7,1.3c0.2,0.4,4.2,10.1-1.8,19.5c2.1,2.2,3.8,5.7,1.8,9.1C924.2,859.4,920.9,863.4,907.3,863.4z       M894.6,842.7c0.8,5.4,2.4,9.4,2.4,9.4c0.3,0.7,0.2,1.4-0.2,2l-0.1,0.2c-0.6,1-0.2,2.1,0,2.4c0.5,0.9,1.3,1.5,2.3,1.6      c18.9,1.8,21.7-2.6,21.7-2.7c0.1-0.2,0.1-0.1,0.2-0.3c1.2-1.8-2.3-4.6-2.3-4.6c-0.5-0.4-0.8-0.9-0.9-1.6      c-0.1-0.6,0.1-1.2,0.5-1.7c4.1-5.1,3.8-10.7,3.2-13.9C914,837.9,905,841,894.6,842.7z" />
			</g>
			<g>
				<path fill="#A5DFF6" d="M934.1,738.5l13.4,11c0,0,12.1-8,8.2,4.1c0,0,8,3.6,2.6,12.6l-5.1,7.7c0,0-3.3,4.6-9.1,0      C944,773.9,942.6,758.8,934.1,738.5z" />
				<path fill="#3C2415" d="M948.9,778.3c-2.1,0-4.2-0.9-6.4-2.6c-0.5-0.4-0.8-1-0.9-1.6c0-0.1-1.5-15-9.7-34.7      c-0.4-1-0.1-2.1,0.8-2.7c0.9-0.6,2-0.6,2.8,0.1l12.1,9.9c2.4-1.4,6.6-3.2,9.3-1.2c2.3,1.7,1.9,4.9,1.4,7.1c1.3,1,2.9,2.6,3.6,5      c0.9,3,0.3,6.3-1.8,9.8l-5.2,7.8c-0.2,0.3-1.9,2.6-5,3C949.6,778.2,949.3,778.3,948.9,778.3z M946.2,772.6c0.9,0.6,2,1.1,3.1,1      c1.2-0.1,1.9-1.1,1.9-1.1l5.1-7.6c1.3-2.2,1.8-4.3,1.3-5.9c-0.7-2.2-2.9-3.3-2.9-3.3c-1-0.5-1.6-1.7-1.2-2.8      c1-3,0.6-3.8,0.6-3.8c-0.5-0.1-3.3,1-5.3,2.3c-0.8,0.6-2,0.5-2.7-0.1l-6.6-5.4C944.2,759.4,945.8,769.4,946.2,772.6z" />
			</g>
			<circle fill="#3C2415" cx="928.9" cy="642" r="11.6" />
			<ellipse fill="#EF4136" cx="950.4" cy="663.1" rx="12.7" ry="5.8" />
			<path fill="#3C2415" d="M867.6,677.5c-0.5,0-1.1-0.2-1.5-0.6c-1-0.8-1-2.3-0.2-3.3l15.8-17.8c0.8-1,2.3-1,3.3-0.2     c1,0.8,1,2.3,0.2,3.3l-15.8,17.8C868.8,677.2,868.2,677.5,867.6,677.5z" />
			<path fill="#3C2415" d="M938,790.1l-19.7-12.5l16.9-14.3c0.6-0.5,0.7-1.5,0.2-2.2c-0.5-0.6-1.5-0.7-2.2-0.2l-18.1,15.3h-46.1     v-26.7l14.5-18.6c0.5-0.7,0.4-1.6-0.3-2.2c-0.7-0.5-1.6-0.4-2.1,0.3l-13.6,17.5L854,729c-0.5-0.7-1.5-0.8-2.1-0.3     c-0.7,0.5-0.8,1.5-0.3,2.2l14.5,18.6v26.7H820l-18.1-15.3c-0.6-0.6-1.6-0.5-2.2,0.2c-0.5,0.7-0.5,1.6,0.2,2.2l16.9,14.3     l-19.6,12.5c-0.7,0.5-0.9,1.4-0.5,2.1c0.3,0.5,0.8,0.7,1.3,0.7c0.3,0,0.6-0.1,0.8-0.2l21-13.4H866v38l-14.7,17.3     c-0.5,0.6-0.5,1.6,0.2,2.2c0.3,0.2,0.6,0.4,1,0.4c0.4,0,0.9-0.2,1.2-0.5l13.9-16.4l13.9,16.4c0.3,0.4,0.7,0.5,1.2,0.5     c0.4,0,0.7-0.1,1-0.4c0.6-0.6,0.7-1.5,0.2-2.2l-14.7-17.3v-38h46.2l21,13.4c0.3,0.2,0.5,0.2,0.8,0.2c0.5,0,1-0.3,1.3-0.7     C938.9,791.5,938.7,790.5,938,790.1z" />
		</g>
		
  </g>
</svg>
